<?xml version="1.0" encoding="utf-8"?>
<!-- Generator: Adobe Illustrator 21.1.0, SVG Export Plug-In . SVG Version: 6.00 Build 0)  -->
<svg version="1.1" id="Layer_1" xmlns="http://www.w3.org/2000/svg" xmlns:xlink="http://www.w3.org/1999/xlink" x="0px" y="0px"
	 viewBox="0 0 841 316" style="enable-background:new 0 0 841 316;" xml:space="preserve">
<style type="text/css">
	.st0{fill:#F1AF2B;}
</style>
<g>
	<path class="st0" d="M65.3,122.2L1.2,281.9H45l8.4-23.1h55.5l7.8,23.1h44.2L97.4,122.2H65.3z M64.6,226.4L81,171.8h0.4h0.2
		l16.4,54.6H64.6z"/>
	<path class="st0" d="M243.1,172.3c-3.9-3.9-14-14.2-35.2-14.2c-30.4,0-59.3,23.1-59.3,63.7c0,36,23.7,64.1,60,64.1
		c24.2,0,32.8-11.9,35.8-16.8h0.4v12.9h34.1V122.2h-35.8V172.3z M214.4,252.3c-16.8,0-30-12.3-30-30.9c0-13.8,9.7-30,30.4-30
		c19.9,0,30.2,15.5,30.2,30C245,234,236.8,252.3,214.4,252.3z"/>
	<polygon class="st0" points="343,236.8 342.6,236.8 319.7,162.1 282.6,162.1 325.5,281.9 359.8,281.9 403,162.1 365.9,162.1 	"/>
	<rect x="411" y="162.1" class="st0" width="35.8" height="119.8"/>
	<path class="st0" d="M507.6,207.7c-9.5-2.8-18.3-6.5-18.3-12.9c0-3.2,2.6-8,10.1-8c10.6,0,11,6.5,11.2,9.1h35.2
		c-3-31.5-30.2-37.8-46-37.8c-24.8,0-46.4,15.8-46.4,39.5c0,16.2,12.9,26.3,28.5,31.3c22.9,8.8,31.7,9.9,31.7,19.2
		c0,5.8-6.5,9.3-12.5,9.3c-1.5,0-12.1,0-13.6-11H452c3.2,31.5,30.6,39.7,48.8,39.7c26.5,0,48.8-15.5,48.8-40.8
		C549.5,219.3,527.9,213.3,507.6,207.7z"/>
	<circle class="st0" cx="428.9" cy="135" r="18.2"/>
	<path class="st0" d="M627.4,160.2h-8c-0.4,0-0.7,0-1,0v0c-16.6,0-27,3.8-30,9.6h-0.4v-7.7h-33.7v119.8h35.8v-57.2
		c0-18.1,11.7-29.3,28.3-29.8v0c0.3,0,0.7,0,1,0h8c9.9,0,18-8.1,18-18C645.3,167,637.3,160.2,627.4,160.2z"/>
	<path class="st0" d="M684.4,244.2h36c36.7,0,66.5-29.8,66.5-66.5c0-36.7-29.8-66.5-66.5-66.5h-36c-9.6,0-17.4,7.8-17.4,17.4
		s7.8,17.4,17.4,17.4h36c17.4,0,31.6,14.2,31.6,31.6c0,17.4-14.2,31.6-31.6,31.6h-36c-9.6,0-17.4,7.8-17.4,17.4
		C667,236.4,674.8,244.2,684.4,244.2z"/>
	<path class="st0" d="M684.4,195.1h37.1c9.6,0,17.4-7.8,17.4-17.4c0-9.6-7.8-17.4-17.4-17.4h-37.1c-9.6,0-17.4,7.8-17.4,17.4
		C667,187.3,674.8,195.1,684.4,195.1z"/>
	<path class="st0" d="M723.5,60.3c-5.6,0-12,0-19.6,0l-0.4,0V36.3c0-10-8.1-18.1-18.1-18.1c-10,0-18.1,8.1-18.1,18.1v42.3
		c0,9.9,8,18,17.9,18.1l0.3,0c14.5-0.1,27.2-0.1,38-0.1c44.8,0,80.4,36.4,80.4,81.2c0,44.8-35.7,81.2-80.4,81.2h-38.1
		c-10,0-18.1,8.1-18.1,18.1c0,10,8.1,18.1,18.1,18.1h38.1c64.7,0,117.4-52.6,117.4-117.4C840.9,113,788.2,60.3,723.5,60.3z"/>
</g>
</svg>
