<?xml version="1.0" encoding="utf-8"?>
<!-- Generator: Adobe Illustrator 19.1.0, SVG Export Plug-In . SVG Version: 6.00 Build 0)  -->
<svg version="1.1" id="Layer_1" xmlns="http://www.w3.org/2000/svg" xmlns:xlink="http://www.w3.org/1999/xlink" x="0px" y="0px"
	 viewBox="0 0 1200 700" style="enable-background:new 0 0 1200 700;" xml:space="preserve">
<style type="text/css">
	.st0{fill:#FEFDFD;}
	.st1{fill:#E65503;}
	.st2{fill:#363636;}
	.st3{fill:#E75809;}
	.st4{fill:#3B3B3B;}
	.st5{fill:#FCFCFC;}
</style>
<g>
	<g>
		<path class="st0" d="M600,575.7c-198.9,0-397.9,0-596.8,0.1c-2.6,0-3.2-0.6-3.2-3.2C0.1,382.8,0.1,193,0,3.2C0,0.6,0.6,0,3.2,0
			c397.9,0.1,795.8,0.1,1193.6,0c2.6,0,3.2,0.6,3.2,3.2c-0.1,189.8-0.1,379.6,0,569.4c0,2.6-0.6,3.2-3.2,3.2
			C997.9,575.7,798.9,575.7,600,575.7z M996.1,224.7c3.7,0,7.4-0.1,11.1,0c2.4,0.1,2.9-0.8,2.9-3c-0.2-9.2-1.1-18.2-2.9-27.2
			c-15.8-79.4-90.1-135.6-174.3-123.3c-47.3,6.9-83.8,31.6-109.2,72c-15,23.8-22.5,50-23.2,78.1c-0.1,2.5,0.5,3.4,3.2,3.4
			c7.3-0.2,14.6-0.2,21.8,0c2.5,0.1,3.1-0.9,3.1-3.2c0.1-4.3,0.4-8.5,0.9-12.8c8.1-68.9,71.9-118.9,140.8-110.3
			c36,4.5,65,21.5,86.8,50.4c16,21.3,24.3,45.5,25,72.2c0.1,2.9,0.8,3.9,3.7,3.7C989.4,224.5,992.8,224.7,996.1,224.7z M700.6,260.1
			c-3.1-3.4-5.9-5.3-8.9-7.1c-22.8-13.2-55.4-7.8-73.3,12.3c-15.7,17.6-19.7,38.3-14.8,60.8c7.9,36.1,41.8,53.6,73.5,46.9
			c8.8-1.9,16.6-5.9,23.6-12.6c0,3.7,0.1,6.8,0,9.9c-0.1,2.2,0.6,2.8,2.7,2.7c7.3-0.1,14.6-0.2,21.8,0c3.1,0.1,3.8-0.8,3.8-3.8
			c-0.1-25.7-0.1-51.3-0.1-77c0-14-0.1-28,0-42c0-2.4-0.6-3.2-3.1-3.2c-7.5,0.1-15,0.1-22.5,0c-2,0-2.9,0.4-2.8,2.7
			C700.8,253,700.6,256.1,700.6,260.1z M451.6,319.6c15.4,0,30.7-0.1,46.1,0.1c2.4,0,3.1-0.7,3.4-3c1.4-12.9-1-25.1-6.9-36.6
			c-11.8-23-36.3-36.3-62.2-34c-25.8,2.3-47.5,19.7-55.2,44.4c-7.8,25.1,0.3,52.9,19.9,69.2c22.8,19,54.7,18.7,78,5.5
			c10.4-5.9,18.3-14.4,23.4-25.3c1.7-3.7,1.7-3.7-2.2-3.7c-7.4,0-14.8,0.1-22.2-0.1c-4.2-0.1-7.4,0.6-10.6,4
			c-6.3,6.6-14.9,7.8-23.6,8.1c-16.3,0.6-31.3-10.1-35.8-25.3c-0.8-2.6-0.4-3.3,2.5-3.3C421.4,319.7,436.5,319.6,451.6,319.6z
			 M1140.4,373.1c-1.3-2.3-2.3-3.9-3.2-5.4c-15.7-26.5-31.5-53.1-47.3-79.6c-1.3-2.2-1.4-3.7,0.2-5.9c7.4-10.3,14.6-20.8,21.9-31.2
			c0.7-1,1.8-1.8,1.7-3.2c-1-0.7-2.1-0.4-3.1-0.4c-8.1,0-16.2,0.1-24.3-0.1c-2.5,0-4,0.7-5.4,2.8c-8,12-16.2,23.9-24.3,35.9
			c-0.6,0.9-0.8,2.2-2.6,2.4c0-1.3,0-2.6,0-3.8c0-28.8,0-57.6,0.1-86.3c0-3.2-0.6-4.5-4.1-4.3c-6.7,0.3-13.4,0.2-20.1,0
			c-2.7-0.1-3.5,0.7-3.5,3.4c0.1,17.1,0.1,34.2,0.1,51.3c0,40.3,0,80.7-0.1,121c0,2.6,0.5,3.6,3.4,3.5c7-0.2,14.1-0.2,21.2,0
			c2.4,0.1,3.2-0.6,3.1-3.1c-0.1-11.3-0.1-22.7-0.1-34c0-1.5,0-2.9,0.9-4.3c4.8-6.9,9.7-13.8,14.4-20.8c1.2-1.7,1.8-1.7,2.8,0.1
			c3.3,5.6,6.7,11.1,10,16.6c8.4,14.2,16.8,28.5,25.2,42.7c0.7,1.2,1.2,2.8,3.2,2.8C1120.3,373,1130,373.1,1140.4,373.1z
			 M364.4,310.3c0.1-37-27-64.3-63.9-64.5c-36.6-0.2-64.5,27.1-64.6,63.2c-0.2,37.8,26.7,65.4,64,65.5
			C337,374.7,364.3,347.5,364.4,310.3z M982.4,359.2c0,4.4,0.1,7.7,0,11c-0.1,2,0.3,2.9,2.6,2.9c7.5-0.1,15-0.1,22.5,0
			c2,0,2.6-0.7,2.5-2.6c-0.1-5.5,0-11.1,0-16.6c0-34.3,0-68.7,0.1-103c0-2.9-0.7-3.7-3.6-3.6c-6.9,0.2-13.9,0.2-20.8,0
			c-2.6-0.1-3.3,0.7-3.3,3.3c0.1,12.4,0.1,24.7,0.1,37.1c0,11,0.3,22-0.2,32.9c-0.7,16.8-11.1,27.4-26.8,27.6
			c-9,0.1-17.3-1.7-22.8-9.9c-4.2-6.3-5.1-13.6-5.1-20.9c-0.1-22.3-0.1-44.6,0-66.9c0-2.6-0.7-3.3-3.3-3.3c-6.9,0.2-13.9,0.2-20.8,0
			c-2.9-0.1-3.7,0.7-3.7,3.6c0.1,23.8,0.1,47.6,0,71.4c0,5.1,0.4,10.2,1.4,15.2c2.6,13.6,8.7,24.8,21.4,31.5
			c10,5.2,20.7,6.3,31.7,5.1C965.2,373,974.2,368,982.4,359.2z M805.8,374.5c30.3,0,55.5-20.6,61.7-50.3c0.5-2.5-0.2-3.2-2.5-3.6
			c-6.6-1-13.3-2.1-19.8-3.5c-3.3-0.7-4.4-0.1-5.3,3.3c-8.6,32.4-42.4,33.3-59,19.1c-10.7-9.2-13.3-21.3-11.4-34.6
			c1.7-11.5,6.6-21.5,16.9-27.8c15.8-9.6,35.6-5.7,47.2,9.1c1.2,1.6,2,1.6,3.6,0.6c5.8-3.8,11.6-7.6,17.7-11
			c3.2-1.8,2.9-3.2,0.9-5.7c-16.4-21.2-48.4-30.1-73.9-20.4c-29.8,11.3-46.6,44-39.2,76.3C749.2,354.6,775.2,374.5,805.8,374.5z
			 M165,245.9c-30.8,0.5-49.7,17.8-58,35.8c-17.6,38,1.5,80.3,40.8,90.5c38,9.8,71.5-12.5,79.3-48.3c0.5-2.1,0.2-2.8-2-3.2
			c-7.3-1.2-14.6-2.5-21.9-3.9c-2-0.4-3,0-3.3,2.1c-0.6,3.6-1.9,6.9-3.6,10.1c-6.6,12.5-16.9,19.2-31,19.1
			c-14.5-0.1-26.3-5.8-33.1-19.4c-3.9-7.7-4.5-16-3-24.3c2-11.2,6.7-21,16.7-27.2c15.7-9.7,35.9-5.8,47.2,8.9
			c1.4,1.8,2.2,1.7,3.8,0.6c5.7-3.7,11.5-7.3,17.3-10.9c3.6-2.3,3.7-2.3,0.9-5.8C201.6,253.3,183.7,246,165,245.9z M542.7,283.6
			c0-28.8,0-57.6,0.1-86.3c0-2.7-0.8-3.5-3.5-3.5c-6.6,0.2-13.2,0.3-19.8,0c-3.4-0.1-4.5,0.7-4.5,4.3c0.2,30.9,0.1,61.7,0.1,92.6
			c0,26.2,0.1,52.5-0.1,78.7c0,3.1,0.9,3.9,3.9,3.8c6.6-0.2,13.2-0.2,19.8,0c3.1,0.1,4.1-0.6,4.1-3.9
			C542.6,340.7,542.7,312.1,542.7,283.6z M588.3,310.2c0-19.9,0-39.8,0.1-59.6c0-2.6-0.6-3.4-3.2-3.3c-7.2,0.2-14.3,0.1-21.5,0
			c-2.1,0-3,0.4-3,2.8c0.1,40.1,0.1,80.2,0,120.3c0,2.1,0.6,2.8,2.8,2.7c7-0.1,14.1-0.2,21.1,0c2.9,0.1,3.9-0.5,3.9-3.7
			C588.2,349.7,588.3,329.9,588.3,310.2z M609.5,434.1c-0.7-0.8-1.2-1.3-1.6-1.7c-10.5-10.7-27.9-8.7-35.7,4.2
			c-6.1,10-6.4,21-4.9,32.2c0.9,6.5,3.5,12.3,8.4,16.7c8.7,7.8,22.2,7.7,31.1,0c0.5-0.5,0.9-1.5,2-0.9c0.3,3.3,0.2,6.6-0.4,9.9
			c-1.3,7-5.7,10.9-12.9,11.3c-4,0.2-7.8-0.3-11.6-1.5c-6.5-2-6.4-1.9-8.4,4.5c-0.5,1.7-0.3,2.5,1.4,3.2c8.6,3.4,17.4,4.8,26.4,2.4
			c10.6-2.8,16.9-11.8,16.9-24.1c0.1-18.9,0-37.9,0-56.8c0-6.8,0-6.7-6.7-6.8c-2.4,0-3.3,0.7-3.3,3.1
			C610.2,431.1,609.8,432.4,609.5,434.1z M855.9,434.7c-0.2-1.8-0.5-3.6-0.5-5.4c0-1.8-0.6-2.7-2.6-2.7c-5.1,0.1-10.2,0-15.3,0.1
			c-0.9,0-1.8-0.1-2.2,1.1c-1.2,3.8,0.3,6.4,4.1,7c0.7,0.1,1.4,0.4,2,0.4c2.9,0,3.5,1.5,3.5,4.2c-0.2,11.6-0.1,23.1-0.1,34.7
			c0,6.9,0,6.9-6.6,8c-0.6,0.1-1.2,0.1-1.7,0.4c-2.6,1.4-0.9,3.9-1.2,5.9c-0.3,1.7,1.2,1.7,2.4,1.7c8.7,0,17.3,0,26,0
			c0.9,0,1.8,0.1,2.1-1.2c1.1-3.9-0.2-6.3-4.2-6.9c-0.8-0.1-1.6-0.4-2.4-0.4c-2.5,0-3-1.3-3-3.6c0.1-10.6,0.1-21.3,0-31.9
			c0-1.8,0.5-3.4,1.7-4.8c4.5-5.4,12.2-7.7,18.8-5.5c3.6,1.2,5.8,3.6,6.9,7.2c0.7,2.5,0.8,5,0.8,7.6c0,7.9,0,15.7,0,23.6
			c0,6.9,0,6.9-6.6,8.1c-0.5,0.1-0.9,0.1-1.4,0.3c-3.1,1.2-1,3.8-1.5,5.7c-0.4,1.5,0.7,1.9,2.1,1.9c8.8,0,17.6,0,26.4,0
			c1.4,0,2-0.5,2.2-2c0.5-5,0.3-5.3-4.7-6.2c-0.7-0.1-1.4-0.4-2-0.4c-2.2,0-2.9-1-2.9-3.3c0.2-5.3,0.1-10.6,0-15.9
			c-0.1-6.7,0.6-13.4-0.7-20.1c-1.4-7.7-5.3-13.4-13.1-15.5c-9.1-2.5-17.4-0.9-24.1,6.3C857.7,433.6,857.4,434.6,855.9,434.7z
			 M712.1,482.1c0.2,1.9,0.4,3.9,0.5,5.8c0.1,1.4,0.6,2.1,2.1,2.1c4.6,0,9.2,0,13.9,0c0.7,0,1.3-0.1,1.7-0.8
			c1.4-2.8-0.3-6.8-3.4-7.2c-3-0.4-3.9-1.8-3.9-4.8c0.2-15.7,0-31.4,0.1-47.1c0-2.6-0.7-3.5-3.3-3.3c-4.1,0.2-8.3,0.3-12.5,0
			c-3.4-0.3-4.6,0.7-4.5,4.3c0.1,3.1,1.5,3.5,3.9,3.9c6,1.1,4.8,0.3,4.9,5.7c0.1,9.1,0,18.3,0,27.4c0,6.3-3,10.6-9.1,12.7
			c-3,1-6.1,1.3-9.2,1c-5.2-0.6-8.2-3.3-9.3-8.3c-0.7-3.1-0.9-6.2-0.9-9.3c0-11.4,0-22.9,0-34.3c0-1.5,0.3-3.1-2.1-3
			c-4.9,0.1-9.7,0-14.6,0c-0.8,0-1.6,0-2,1c-1.3,3.2,0.4,6.7,3.8,7.3c2.7,0.5,3.4,1.7,3.3,4.4c-0.2,8.3,0,16.6-0.1,25
			c0,4,0.5,7.9,1.5,11.7c1.4,5.1,3.9,9.3,8.6,12.1c9,5.4,20.7,3.8,28-3.9C710.2,483.5,710.5,482.3,712.1,482.1z M808.8,461.1
			c6,0,12,0,18,0c1.7,0,2.6-0.4,2.5-2.3c-0.1-3.9,0.1-7.9-0.6-11.8c-1.8-9.9-6.4-17.7-16.8-20.4c-11-2.9-20.6-0.4-28.1,8.5
			c-7.1,8.3-8.3,18.1-7.3,28.4c1,10.4,5,19.4,14.8,24.3c10.3,5.2,20.8,4.4,31-0.8c5.7-2.9,5.6-3.1,2.4-8.6c-1.2-1.9-1.9-2.2-3.9-0.8
			c-5.5,3.9-11.8,5.1-18.5,4.3c-7.7-0.9-15.1-11.1-14.3-19.3c0.2-1.9,1.3-1.6,2.4-1.6C796.6,461.1,802.7,461.1,808.8,461.1z
			 M1116.2,461.1c6,0,12-0.1,18,0c2.1,0,2.8-0.6,2.8-2.8c-0.1-4.2,0-8.3-0.8-12.4c-2-9.5-6.8-16.7-16.7-19.3
			c-10.7-2.8-20-0.4-27.7,8c-10.8,11.7-9.2,35.1-2.7,44.3c3.9,5.5,8.8,9.6,15.3,11.1c8.7,2,17.2,1.4,25.2-2.8
			c5.9-3.1,5.9-3.3,2.5-8.9c-1-1.7-1.7-2.4-3.6-0.9c-2,1.7-4.6,2.7-7.1,3.5c-13.8,4.2-23.6-2-25.6-15.9c-0.4-2.8-0.1-4.2,3.4-4.1
			C1104.9,461.3,1110.6,461.1,1116.2,461.1z M1057.4,461.1c5.9,0,11.8-0.1,17.7,0c2.1,0,2.9-0.6,2.8-2.7c-0.2-2.3,0.1-4.6-0.1-6.9
			c-0.7-9.1-3.2-17.4-11.6-22.4c-11.1-6.6-25.3-4-33.6,5.9c-9.3,11.1-10.5,31.4-2.7,43.7c3.2,5,7.3,8.8,12.8,10.6
			c10.8,3.5,21.1,2.5,30.9-3.7c4.6-3,0.2-5-0.6-7.3c-1.1-3.2-2.7-0.9-4.2-0.1c-1.4,0.8-2.8,1.6-4.3,2.2c-4.8,1.9-9.9,2.5-15,1.4
			c-7-1.6-12.1-8.9-12.8-17.6c-0.2-2.2,0.3-3.1,2.7-3.1C1045.4,461.2,1051.4,461.1,1057.4,461.1z M384,478.8
			c-0.2-0.7-0.5-1.4-0.7-2.1c-4.3-16.3-10-32.2-14.8-48.3c-0.7-2.4-1.9-2.6-3.9-2.7c-2.2-0.1-3.3,0.5-3.9,2.7
			c-2.4,8.2-5.1,16.3-7.7,24.4c-2.7,8.6-5.5,17.1-7.8,26.4c-0.5-1.1-0.8-1.6-0.9-2.1c-2.5-13.2-6.8-25.9-10.2-38.8
			c-0.5-2-1.9-4.3-1.4-5.9c0.8-2.1,3.6-0.9,5.6-1.2c2.4-0.3,1.7-2,1.8-3.4c0.2-1.7-0.5-2.2-2.2-2.1c-5.4,0.1-10.9,0.1-16.3,0
			c-1.6,0-2.9-0.1-2.8,2.2c0.1,2,0.3,3.5,2.7,3.2c3-0.4,3.8,1.3,4.5,3.8c4.9,17.1,9.9,34.1,14.8,51.2c0.6,1.9,1.2,3,3.5,2.8
			c2.1-0.1,3.5-0.2,4.3-2.7c2.9-9.8,6.1-19.6,9.3-29.4c2.4-7.1,4.4-14.3,6.5-22.4c4.6,18,10.8,34.6,16,51.4c0.8,2.5,2,3,4.4,3.1
			c2.6,0.1,3-1.3,3.6-3.2c4.8-16.6,9.7-33.2,14.4-49.9c0.9-3.1,1.7-5.3,5.5-4.9c2.6,0.2,1.9-1.9,2.1-3.4c0.2-2-1-1.9-2.4-1.9
			c-5.4,0-10.9,0-16.3,0c-1.4,0-2.8-0.3-2.7,2c0.1,1.7-0.3,3.6,2.4,3.5c1-0.1,2.1,0.2,3.1,0.2c1.9-0.1,2.3,0.6,1.8,2.5
			C392.5,448.8,388.1,463.6,384,478.8z M949.1,458.2c0,6.6-0.1,13.2,0,19.7c0,2.2-0.5,3.5-2.9,3.6c-1.6,0.1-3.2,0.4-4.8,0.8
			c-3.4,0.9-1.3,3.6-1.8,5.5c-0.4,1.6,0.5,2.2,2.1,2.2c8.8-0.1,17.6,0,26.3,0c1.4,0,2-0.5,2.1-2c0.5-5,0.3-5.3-4.7-6.2
			c-0.8-0.1-1.6-0.4-2.4-0.4c-1.9-0.1-2.5-1-2.5-2.9c0.1-13.5,0.1-27,0-40.5c0-2.2,0.8-2.8,2.8-2.7c2.6,0.1,5.3,0,8,0
			c0.8,0,2,0.3,2.2-0.6c0.6-2.4,0.7-4.9,0-7.2c-0.5-1.7-2.6-0.8-4-0.8c-9.3-0.1-9.3,0-8.9-9.4c0.3-6.7,3.8-10.1,10.5-10.3
			c5.4-0.1,5.4-0.1,6.1-5.5c0.1-0.5,0.1-0.9,0.2-1.4c0.2-1-0.3-1.4-1.2-1.7c-7.4-1.8-18.2-1.4-23.6,7c-3.1,4.8-3.5,10.2-3.4,15.6
			c0,5.5,0,5.7-5.4,5.5c-3.3-0.1-4.8,0.4-4.5,4.2c0.4,4.4,0.1,4.5,4.5,4.5c0.8,0,1.6,0.1,2.4,0c2.5-0.4,3.1,0.8,3,3.1
			C949,445,949.1,451.6,949.1,458.2z M651.4,440.1c0-12.8-0.1-25.6,0-38.4c0-2.2-0.6-3-2.9-2.9c-5.2,0.2-10.4,0-15.6,0.1
			c-0.9,0-2-0.4-2.5,1.1c-1.3,3.9,0.2,6.5,4.3,7.1c0.3,0.1,0.7,0.1,1,0.1c3.1,0,4.2,1.3,4.1,4.7c-0.2,21.5-0.2,42.9,0,64.4
			c0,3.7-0.9,5.3-4.7,5.7c-5.2,0.5-5.4,1.2-4.8,6.3c0.1,1.3,0.5,1.8,1.9,1.8c8.9,0,17.8,0,26.7,0c0.9,0,1.7-0.1,2-1.3
			c1.1-4.1-0.1-6.1-4.3-6.8c-0.7-0.1-1.4-0.4-2-0.4c-2.9,0.1-3.2-1.5-3.2-4C651.4,465.1,651.4,452.6,651.4,440.1z M444.2,457.6
			c6.6,0,13.2-0.1,19.7,0c2.1,0,2.9-0.6,2.8-2.8c-0.2-2.9-0.1-5.8-0.5-8.6c-1.2-10.4-7.3-18.2-16.5-20.6
			c-10.6-2.8-19.9-0.5-27.2,8.1c-7.1,8.4-8.4,18.3-7.4,28.7c1.8,19.5,15.2,29.9,34.5,27.1c4.9-0.7,9.2-2.9,13.2-5.8
			c2.6-1.9,0.7-3.3-0.2-4.9c-1.2-2.3-2.2-0.4-3.1,0.3c-6.3,4.7-13.6,6.1-21,4.6c-11.9-2.3-16.7-14.8-16.5-24.7
			c0-1.9,1.4-1.5,2.5-1.5C431,457.6,437.6,457.6,444.2,457.6z M264.2,457.6c4.7,0,9.5,0,14.2,0c8.5,0,8.5,0,8-8.7
			c-0.6-11.3-6.8-20.2-16.3-23.1c-11.2-3.4-21.9,0.1-28.9,9.4c-7.1,9.4-7.5,20.2-5.7,31.1c2.4,14.3,11.6,22.5,25.4,23.7
			c7.8,0.6,15.1-1.2,21.5-6c2.7-2,0.9-3.4-0.1-5.2c-1.3-2.4-2.2-0.3-3.1,0.4c-6.5,4.7-13.8,6-21.4,4.4c-9.4-2-15.8-11.7-16.1-23.3
			c0-2.3,0.7-2.9,2.9-2.9C251.3,457.6,257.8,457.6,264.2,457.6z M744.5,458.1c0.4,6-0.7,13.5,0.6,21c1,6.4,4.8,10.4,10.8,11.6
			c4.4,0.9,8.7,0.5,13-1c0.9-0.3,2-0.5,1.9-1.7c-0.3-2.2-0.4-4.5-1.4-6.4c-0.7-1.4-2.8-0.3-4.2-0.2c-6.6,0.4-9.1-1.8-9.1-8.5
			c0-9.8,0-19.6,0-29.4c0-8.2,0-8.4,8.3-8.2c3.2,0.1,4.2-0.9,3.7-3.9c-0.1-0.6-0.1-1.2,0-1.7c0.3-2.3-0.5-3.4-3-3.1
			c-2.2,0.2-4.4,0-6.6,0.1c-1.8,0.1-2.5-0.6-2.4-2.4c0.1-2.8,0-5.5,0-8.3c0-4.5,0-4.5-4.4-4.5c-7.2,0-7.2,0-7.2,7.3
			c0,2.5,1,5.6-0.5,7.4c-1.5,1.7-4.6,0.4-7,0.6c-0.1,0-0.2,0-0.3,0c-1.4-0.1-2,0.5-2.1,2c-0.6,6.6-0.6,6.6,6.1,6.6c0.3,0,0.7,0,1,0
			c2.4-0.4,2.9,0.8,2.8,3C744.4,444.4,744.5,450.5,744.5,458.1z M1002.5,434c-0.2-1.3-0.6-3-0.7-4.7c0-2.2-1.1-2.7-3-2.6
			c-4.8,0.1-9.7,0-14.6,0.1c-1,0-2.1-0.3-2.6,1.1c-1.3,3.7,0.3,6.4,4.1,7c0.7,0.1,1.4,0.4,2,0.4c2.8,0,3.5,1.4,3.5,4.1
			c-0.2,11.4-0.1,22.9-0.1,34.3c0,7.1,0,7.1-6.9,8.5c-0.5,0.1-1,0.1-1.3,0.3c-2.7,1.4-0.9,3.9-1.3,5.9c-0.3,1.7,1.1,1.7,2.3,1.7
			c8.7,0,17.3,0,26,0c1,0,2,0.1,2.2-1.4c0.9-4.5,0-5.9-4.5-6.7c-0.7-0.1-1.4-0.4-2-0.4c-2.4,0-3.1-1.2-3-3.5c0.1-10,0-20.1,0-30.1
			c0-5.7,4.1-10.4,9.8-11c2.3-0.2,4.6,0,6.9,0c0.9,0,2.1,0.4,2.3-0.9c0.5-3.2,2.4-6.9,0.7-9.3c-1.5-2.2-5.4-1-8.2-0.5
			c-2.6,0.5-4.7,1.8-6.7,3.5C1006,431.1,1004.3,432.4,1002.5,434z M574.5,195.5c-10.4,0-18.5,8.3-18.6,18.8
			c-0.1,10.4,8.2,18.8,18.5,18.9c10.5,0.1,18.7-8.3,18.7-19C593.1,203.7,584.9,195.5,574.5,195.5z M200.5,480.3
			c-4.8-15.2-10.7-29.2-16-43.4c-1.8-5-1.9-5.1,3.5-5.6c2.4-0.2,2.2-1.6,2.4-3.2c0.2-2.3-1.1-2.3-2.8-2.3c-5.2,0.1-10.4,0-15.6,0
			c-1.4,0-3-0.5-3,2c0,2.2,0.3,3.7,2.9,3.4c2.6-0.3,3.7,1,4.6,3.4c6.5,17,13.2,34,19.7,51c0.8,2,1.4,3.5,4.2,3.5
			c2.6-0.1,3.3-1.4,4-3.3c6.3-16.2,12.6-32.5,18.8-48.7c1.2-3.2,2-6.6,6.8-6c2.5,0.3,1.3-2.1,1.6-3.4c0.3-1.6-0.6-1.9-2-1.9
			c-5.8,0.1-11.6,0.1-17.3,0c-1.5,0-1.8,0.6-2,2c-0.5,3.7,1.9,3.7,4.3,3.5c3.3-0.2,3.5,1,2.4,3.8
			C211.6,449.8,205.8,464.5,200.5,480.3z M490,440.3c0-13.2-0.1-26.4,0.1-39.5c0-2.5-0.7-3.2-3.1-3.1c-3.6,0.2-7.2,0.1-10.7,0
			c-1.8-0.1-2.8,0.3-2.7,2.4c0,1.9,0.3,3.2,2.6,3c1.1-0.1,2.3,0.4,3.4,0.3c2.9-0.2,3.6,1,3.6,3.8c-0.1,22.9-0.1,45.8-0.1,68.7
			c0,6.8,0,7-6.9,7.5c-2.5,0.2-2.5,1.5-2.6,3.4c-0.1,2.5,1.5,2.1,3,2.1c6.7,0,13.4,0,20.1,0c1.7,0,3.1,0.1,3-2.4
			c0-2.2-0.6-3.2-2.9-3.1c-1,0.1-2.1-0.2-3.1-0.1c-2.8,0.2-3.7-1-3.7-3.9C490,466.4,490,453.3,490,440.3z M524.5,440.4
			c0-13.3,0-26.6,0-39.9c0-2-0.4-2.9-2.7-2.8c-3.7,0.2-7.4,0.1-11.1,0c-1.6,0-2.9-0.1-2.9,2.3c0,2.1,0.4,3.4,2.8,3.2
			c0.9-0.1,1.9,0.3,2.8,0.2c3.8-0.5,4.1,1.5,4.1,4.6c-0.1,22.5-0.1,45.1-0.1,67.6c0,7.1,0,7.2-7,7.8c-2.2,0.2-2.6,1.1-2.6,3.1
			c0,2.1,0.9,2.5,2.7,2.5c6.8-0.1,13.6,0,20.5,0c1.7,0,3.1,0.2,3.1-2.4c0-2.2-0.6-3.2-2.9-3.1c-1.1,0-2.3-0.2-3.5-0.2
			c-2.7,0.1-3.4-1.1-3.4-3.7C524.6,466.5,524.5,453.5,524.5,440.4z M120.8,440.8c0-13.4-0.1-26.8,0.1-40.2c0-2.3-0.6-3-2.9-2.9
			c-3.6,0.2-7.2,0-10.7,0.1c-1.5,0-3-0.4-3,2.1c0,2.3,0.5,3.5,3,3.4c1-0.1,2.1,0.4,3.1,0.2c3.3-0.4,3.6,1.2,3.6,4
			c-0.1,22.6-0.1,45.3-0.1,67.9c0,7.2,0,7.3-7.1,8c-2.2,0.2-2.5,1.2-2.6,3.1c0,2.2,0.9,2.4,2.7,2.4c6.8-0.1,13.6,0,20.5,0
			c1.7,0,3.1,0.2,3.1-2.4c0-2.2-0.6-3.2-2.9-3.1c-1.1,0-2.3-0.2-3.5-0.2c-2.7,0.1-3.4-1-3.4-3.7
			C120.9,466.7,120.8,453.8,120.8,440.8z M156.1,454.3c0-8.5-0.1-17.1,0.1-25.6c0-2.5-0.8-3.1-3.1-3c-3.6,0.2-7.2,0.1-10.7,0
			c-1.6,0-2.9-0.2-2.8,2.2c0.1,2,0.3,3.4,2.7,3.3c1.1-0.1,2.3,0.3,3.5,0.2c2.9-0.3,3.6,1.1,3.6,3.8c-0.1,13.5-0.1,27-0.1,40.5
			c0,7,0,7.1-7.1,7.7c-2.2,0.2-2.6,1.1-2.6,3.1c0,2.1,0.8,2.5,2.7,2.5c6.9-0.1,13.9-0.1,20.8,0c1.7,0,2.9-0.1,2.8-2.3
			c-0.1-1.8-0.1-3.2-2.5-3.1c-1.4,0-2.8-0.3-4.1-0.2c-2.4,0.1-3-1-3-3.3C156.2,471.4,156.1,462.9,156.1,454.3z M156,402.1
			c-0.3-0.9,0.9-3-0.4-3.9c-1.6-1.1-3.8-0.6-5.7-0.2c-1.4,0.3-0.6,2-0.8,3c-0.1,1.1,0.1,2.3-0.1,3.4c-0.3,2.5,0.5,3.1,3.1,3.4
			C156.9,408.3,156.2,405.5,156,402.1z"/>
		<path class="st1" d="M996.1,224.7c-3.4,0-6.7-0.2-10.1,0.1c-2.9,0.2-3.7-0.8-3.7-3.7c-0.7-26.7-9-50.9-25-72.2
			c-21.8-28.9-50.8-45.9-86.8-50.4c-68.9-8.6-132.7,41.4-140.8,110.3c-0.5,4.2-0.8,8.5-0.9,12.8c-0.1,2.3-0.6,3.2-3.1,3.2
			c-7.3-0.2-14.6-0.2-21.8,0c-2.7,0.1-3.3-0.8-3.2-3.4c0.7-28.1,8.2-54.3,23.2-78.1c25.4-40.5,61.9-65.1,109.2-72
			c84.2-12.3,158.5,43.9,174.3,123.3c1.8,9,2.7,18,2.9,27.2c0,2.2-0.5,3.1-2.9,3C1003.5,224.6,999.8,224.7,996.1,224.7z"/>
		<path class="st2" d="M700.6,260.1c0-4.1,0.1-7.1,0-10.2c-0.1-2.2,0.7-2.7,2.8-2.7c7.5,0.1,15,0.1,22.5,0c2.5,0,3.1,0.8,3.1,3.2
			c-0.1,14,0,28,0,42c0,25.7-0.1,51.3,0.1,77c0,3.1-0.7,3.9-3.8,3.8c-7.3-0.2-14.6-0.2-21.8,0c-2.1,0-2.9-0.6-2.7-2.7
			c0.2-3.1,0-6.2,0-9.9c-7,6.7-14.7,10.7-23.6,12.6c-31.6,6.7-65.5-10.8-73.5-46.9c-4.9-22.5-0.9-43.2,14.8-60.8
			c17.9-20.1,50.6-25.5,73.3-12.3C694.7,254.8,697.6,256.8,700.6,260.1z M665.8,347.7c20,0,35.9-16.8,35.9-37.7
			c-0.1-21-16-37.7-36-37.5c-20.6,0.1-36.8,16.7-36.8,37.7C628.9,331.1,645.2,347.7,665.8,347.7z"/>
		<path class="st2" d="M451.6,319.6c-15.1,0-30.3,0.1-45.4-0.1c-2.9,0-3.2,0.8-2.5,3.3c4.5,15.2,19.5,25.9,35.8,25.3
			c8.7-0.3,17.3-1.5,23.6-8.1c3.2-3.3,6.4-4.1,10.6-4c7.4,0.2,14.8,0.1,22.2,0.1c3.9,0,3.9,0,2.2,3.7c-5.2,10.9-13,19.4-23.4,25.3
			c-23.3,13.2-55.2,13.5-78-5.5c-19.5-16.3-27.6-44.1-19.9-69.2c7.7-24.7,29.4-42.2,55.2-44.4c25.9-2.3,50.4,11,62.2,34
			c5.9,11.5,8.3,23.7,6.9,36.6c-0.3,2.3-1,3-3.4,3C482.4,319.6,467,319.6,451.6,319.6z M437.3,295c10.2,0,20.3-0.1,30.5,0
			c2.5,0,3.3-0.5,2.2-3.1c-5-12-18.5-20.6-32.4-20.5c-13.9,0.1-27.3,8.7-32.3,20.7c-0.9,2.2-0.7,3,1.9,2.9
			C417.2,295,427.3,295,437.3,295z"/>
		<path class="st1" d="M1140.4,373.1c-10.4,0-20.1,0-29.8,0c-2,0-2.4-1.5-3.2-2.8c-8.4-14.2-16.8-28.5-25.2-42.7
			c-3.3-5.6-6.7-11.1-10-16.6c-1-1.8-1.7-1.8-2.8-0.1c-4.7,7-9.5,13.9-14.4,20.8c-0.9,1.4-0.9,2.8-0.9,4.3c0,11.3-0.1,22.7,0.1,34
			c0,2.5-0.7,3.1-3.1,3.1c-7-0.1-14.1-0.2-21.2,0c-2.9,0.1-3.4-0.9-3.4-3.5c0.1-40.3,0.1-80.7,0.1-121c0-17.1,0.1-34.2-0.1-51.3
			c0-2.8,0.8-3.5,3.5-3.4c6.7,0.2,13.4,0.3,20.1,0c3.5-0.2,4.1,1.1,4.1,4.3c-0.1,28.8-0.1,57.6-0.1,86.3c0,1.2,0,2.5,0,3.8
			c1.7-0.2,2-1.5,2.6-2.4c8.2-11.9,16.3-23.8,24.3-35.9c1.4-2.1,2.9-2.8,5.4-2.8c8.1,0.1,16.2,0,24.3,0.1c1,0,2.1-0.3,3.1,0.4
			c0,1.4-1.1,2.2-1.7,3.2c-7.3,10.4-14.5,20.9-21.9,31.2c-1.5,2.1-1.5,3.7-0.2,5.9c15.8,26.5,31.5,53.1,47.3,79.6
			C1138.1,369.2,1139.1,370.8,1140.4,373.1z"/>
		<path class="st2" d="M364.4,310.3c-0.1,37.2-27.5,64.4-64.6,64.2c-37.2-0.1-64.1-27.7-64-65.5c0.1-36.1,28-63.3,64.6-63.2
			C337.4,246,364.6,273.4,364.4,310.3z M264,309.9c-0.1,27.5,22.2,43.1,47.3,36.1c15.6-4.4,23.3-16.1,24.8-31.7
			c2.6-28.2-18.8-47.3-46.4-40.5C273.9,277.8,264.1,291.9,264,309.9z"/>
		<path class="st1" d="M982.4,359.2c-8.2,8.8-17.2,13.8-28.1,14.9c-11,1.1-21.7,0.1-31.7-5.1c-12.7-6.7-18.8-17.9-21.4-31.5
			c-1-5-1.4-10.1-1.4-15.2c0-23.8,0.1-47.6,0-71.4c0-2.9,0.8-3.7,3.7-3.6c6.9,0.2,13.9,0.2,20.8,0c2.6-0.1,3.3,0.6,3.3,3.3
			c-0.1,22.3-0.1,44.6,0,66.9c0,7.3,0.9,14.5,5.1,20.9c5.5,8.2,13.8,10,22.8,9.9c15.8-0.2,26.1-10.8,26.8-27.6
			c0.4-11,0.2-22,0.2-32.9c0-12.4,0.1-24.7-0.1-37.1c0-2.6,0.7-3.4,3.3-3.3c6.9,0.2,13.9,0.2,20.8,0c2.9-0.1,3.6,0.8,3.6,3.6
			c-0.1,34.3-0.1,68.7-0.1,103c0,5.5-0.1,11.1,0,16.6c0,1.9-0.5,2.6-2.5,2.6c-7.5-0.1-15-0.1-22.5,0c-2.3,0-2.7-0.9-2.6-2.9
			C982.5,366.9,982.4,363.6,982.4,359.2z"/>
		<path class="st2" d="M805.8,374.5c-30.6,0-56.6-19.9-63.1-48.4c-7.4-32.3,9.4-64.9,39.2-76.3c25.6-9.7,57.5-0.9,73.9,20.4
			c2,2.5,2.3,3.9-0.9,5.7c-6,3.4-11.8,7.2-17.7,11c-1.6,1-2.3,1-3.6-0.6c-11.5-14.8-31.3-18.7-47.2-9.1
			c-10.3,6.3-15.2,16.3-16.9,27.8c-2,13.3,0.6,25.4,11.4,34.6c16.7,14.3,50.4,13.3,59-19.1c0.9-3.4,2-4.1,5.3-3.3
			c6.5,1.4,13.2,2.5,19.8,3.5c2.4,0.4,3,1.1,2.5,3.6C861.3,353.9,836.2,374.5,805.8,374.5z"/>
		<path class="st2" d="M165,245.9c18.7,0.1,36.5,7.4,50.1,24.1c2.8,3.5,2.8,3.5-0.9,5.8c-5.8,3.6-11.6,7.2-17.3,10.9
			c-1.7,1.1-2.5,1.1-3.8-0.6c-11.3-14.7-31.5-18.6-47.2-8.9c-10,6.2-14.8,15.9-16.7,27.2c-1.5,8.4-0.9,16.6,3,24.3
			c6.8,13.6,18.6,19.3,33.1,19.4c14.1,0.1,24.5-6.6,31-19.1c1.7-3.2,3-6.5,3.6-10.1c0.4-2.1,1.3-2.5,3.3-2.1
			c7.3,1.4,14.5,2.7,21.9,3.9c2.2,0.3,2.5,1.1,2,3.2c-7.8,35.8-41.2,58.1-79.3,48.3c-39.3-10.1-58.4-52.5-40.8-90.5
			C115.4,263.7,134.3,246.4,165,245.9z"/>
		<path class="st2" d="M542.7,283.6c0,28.6-0.1,57.1,0.1,85.7c0,3.3-1,4-4.1,3.9c-6.6-0.2-13.2-0.2-19.8,0c-3,0.1-3.9-0.6-3.9-3.8
			c0.1-26.2,0.1-52.5,0.1-78.7c0-30.9,0.1-61.7-0.1-92.6c0-3.6,1-4.5,4.5-4.3c6.6,0.3,13.2,0.2,19.8,0c2.7-0.1,3.5,0.7,3.5,3.5
			C542.6,226,542.7,254.8,542.7,283.6z"/>
		<path class="st2" d="M588.3,310.2c0,19.8-0.1,39.5,0.1,59.3c0,3.2-0.9,3.8-3.9,3.7c-7-0.2-14.1-0.1-21.1,0c-2.1,0-2.8-0.6-2.8-2.7
			c0.1-40.1,0.1-80.2,0-120.3c0-2.4,0.9-2.9,3-2.8c7.2,0.1,14.3,0.2,21.5,0c2.7-0.1,3.2,0.7,3.2,3.3
			C588.3,270.4,588.3,290.3,588.3,310.2z"/>
		<path class="st1" d="M609.5,434.1c0.3-1.7,0.8-3.1,0.8-4.4c0-2.3,0.9-3.1,3.3-3.1c6.7,0.1,6.7,0,6.7,6.8c0,18.9,0.1,37.9,0,56.8
			c-0.1,12.3-6.4,21.4-16.9,24.1c-9,2.4-17.8,1-26.4-2.4c-1.6-0.7-1.9-1.5-1.4-3.2c2-6.4,1.9-6.5,8.4-4.5c3.8,1.2,7.6,1.7,11.6,1.5
			c7.2-0.4,11.6-4.2,12.9-11.3c0.6-3.3,0.7-6.6,0.4-9.9c-1.1-0.6-1.5,0.4-2,0.9c-8.9,7.7-22.4,7.8-31.1,0
			c-4.9-4.4-7.6-10.2-8.4-16.7c-1.5-11.2-1.2-22.2,4.9-32.2c7.8-12.9,25.1-14.9,35.7-4.2C608.3,432.9,608.8,433.3,609.5,434.1z
			 M608.9,458.1c0-2.5,0.1-5.1,0-7.6c-0.1-2.5,0.8-5.2-0.5-7.5c-2.9-5.1-7.4-7.8-13.3-8c-5.6-0.1-10.3,1.9-13,7
			c-4.9,9.2-5.4,19-2.5,28.9c1.9,6.6,6.5,10.4,13.6,10.9c7.5,0.6,17.3-4.8,15.8-14.4C608.5,464.4,608.9,461.2,608.9,458.1z"/>
		<path class="st3" d="M855.9,434.7c1.4-0.1,1.8-1.1,2.3-1.7c6.7-7.2,15-8.8,24.1-6.3c7.8,2.1,11.7,7.8,13.1,15.5
			c1.2,6.7,0.5,13.4,0.7,20.1c0.1,5.3,0.1,10.6,0,15.9c-0.1,2.2,0.7,3.2,2.9,3.3c0.7,0,1.4,0.3,2,0.4c5,0.9,5.2,1.2,4.7,6.2
			c-0.1,1.5-0.7,2-2.2,2c-8.8,0-17.6,0-26.4,0c-1.4,0-2.4-0.4-2.1-1.9c0.5-1.9-1.6-4.5,1.5-5.7c0.4-0.2,0.9-0.2,1.4-0.3
			c6.6-1.2,6.6-1.2,6.6-8.1c0-7.9,0-15.7,0-23.6c0-2.6-0.1-5.1-0.8-7.6c-1-3.6-3.3-6-6.9-7.2c-6.6-2.2-14.3,0.1-18.8,5.5
			c-1.2,1.4-1.7,2.9-1.7,4.8c0.1,10.6,0.1,21.3,0,31.9c0,2.2,0.5,3.5,3,3.6c0.8,0,1.6,0.3,2.4,0.4c3.9,0.7,5.3,3,4.2,6.9
			c-0.4,1.3-1.2,1.2-2.1,1.2c-8.7,0-17.3,0-26,0c-1.2,0-2.6,0-2.4-1.7c0.3-2-1.4-4.4,1.2-5.9c0.5-0.3,1.1-0.3,1.7-0.4
			c6.6-1.2,6.6-1.2,6.6-8c0-11.6-0.1-23.1,0.1-34.7c0-2.7-0.6-4.2-3.5-4.2c-0.7,0-1.4-0.3-2-0.4c-3.8-0.6-5.4-3.2-4.1-7
			c0.4-1.2,1.3-1.1,2.2-1.1c5.1,0,10.2,0.1,15.3-0.1c2,0,2.6,0.8,2.6,2.7C855.4,431.1,855.8,432.9,855.9,434.7z"/>
		<path class="st3" d="M712.1,482.1c-1.6,0.2-1.9,1.3-2.6,2c-7.2,7.7-18.9,9.3-28,3.9c-4.7-2.8-7.2-7.1-8.6-12.1
			c-1-3.8-1.5-7.7-1.5-11.7c0-8.3-0.1-16.6,0.1-25c0.1-2.7-0.6-3.9-3.3-4.4c-3.5-0.6-5.1-4.1-3.8-7.3c0.4-1,1.2-1,2-1
			c4.9,0,9.7,0.1,14.6,0c2.4-0.1,2.1,1.5,2.1,3c0,11.4,0,22.9,0,34.3c0,3.1,0.1,6.2,0.9,9.3c1.2,5,4.2,7.8,9.3,8.3
			c3.1,0.3,6.2,0,9.2-1c6.1-2,9.1-6.3,9.1-12.7c0-9.1,0.1-18.3,0-27.4c0-5.4,1.1-4.6-4.9-5.7c-2.4-0.4-3.8-0.9-3.9-3.9
			c-0.1-3.6,1-4.6,4.5-4.3c4.1,0.3,8.3,0.2,12.5,0c2.6-0.1,3.3,0.7,3.3,3.3c-0.1,15.7,0,31.4-0.1,47.1c0,3,0.9,4.4,3.9,4.8
			c3.1,0.4,4.8,4.5,3.4,7.2c-0.4,0.8-1,0.8-1.7,0.8c-4.6,0-9.2,0-13.9,0c-1.5,0-2-0.7-2.1-2.1C712.4,486,712.2,484.1,712.1,482.1z"
			/>
		<path class="st3" d="M808.8,461.1c-6.1,0-12.2,0-18.4,0c-1.1,0-2.2-0.3-2.4,1.6c-0.8,8.2,6.6,18.3,14.3,19.3
			c6.6,0.8,13-0.3,18.5-4.3c2-1.4,2.7-1.1,3.9,0.8c3.3,5.5,3.4,5.7-2.4,8.6c-10.2,5.1-20.7,5.9-31,0.8c-9.8-4.9-13.8-13.9-14.8-24.3
			c-1-10.3,0.3-20.1,7.3-28.4c7.6-8.9,17.2-11.3,28.1-8.5c10.3,2.7,15,10.4,16.8,20.4c0.7,3.9,0.5,7.8,0.6,11.8
			c0,1.9-0.8,2.3-2.5,2.3C820.8,461,814.8,461.1,808.8,461.1z M803.1,452.1c4.1,0,8.3,0,12.4,0c1.2,0,2.1,0,2.4-1.7
			c1-7.2-5.1-15.1-12.4-15.7c-8.4-0.7-16.3,6.6-16.8,15.3c-0.1,1.9,0.9,2,2.3,2C795,452.1,799,452.1,803.1,452.1z"/>
		<path class="st3" d="M1116.2,461.1c-5.7,0-11.3,0.2-17-0.1c-3.5-0.2-3.8,1.3-3.4,4.1c2,14,11.9,20.1,25.6,15.9
			c2.6-0.8,5.1-1.8,7.1-3.5c1.9-1.6,2.6-0.8,3.6,0.9c3.4,5.6,3.4,5.7-2.5,8.9c-8,4.3-16.6,4.9-25.2,2.8c-6.5-1.5-11.4-5.6-15.3-11.1
			c-6.5-9.2-8.2-32.6,2.7-44.3c7.7-8.3,17-10.7,27.7-8c9.8,2.6,14.7,9.7,16.7,19.3c0.8,4.1,0.7,8.3,0.8,12.4
			c0.1,2.1-0.7,2.8-2.8,2.8C1128.3,461,1122.3,461.1,1116.2,461.1z M1110.8,452.1c4.1,0,8.3,0,12.4,0c1.3,0,2.1-0.2,2.3-1.8
			c0.9-7.3-5.2-15-12.5-15.5c-8.4-0.6-16.4,6.9-16.7,15.5c-0.1,1.7,0.8,1.9,2.1,1.9C1102.5,452.1,1106.7,452.1,1110.8,452.1z"/>
		<path class="st3" d="M1057.4,461.1c-6,0-12,0.1-18,0c-2.4-0.1-2.9,0.8-2.7,3.1c0.7,8.7,5.8,16,12.8,17.6c5.1,1.1,10.1,0.6,15-1.4
			c1.5-0.6,2.9-1.4,4.3-2.2c1.4-0.8,3-3,4.2,0.1c0.8,2.3,5.3,4.3,0.6,7.3c-9.7,6.2-20.1,7.2-30.9,3.7c-5.5-1.8-9.7-5.7-12.8-10.6
			c-7.8-12.2-6.6-32.6,2.7-43.7c8.3-9.9,22.5-12.4,33.6-5.9c8.4,5,10.9,13.3,11.6,22.4c0.2,2.3-0.1,4.6,0.1,6.9
			c0.2,2.2-0.7,2.8-2.8,2.7C1069.2,461,1063.3,461.1,1057.4,461.1z M1051.7,452.1c4,0,8.1,0,12.1,0c1.1,0,2.2,0.2,2.5-1.5
			c1.2-6.9-4.8-15-11.8-15.8c-8.6-1-17,6.6-17.3,15.5c-0.1,1.8,0.9,1.8,2.1,1.8C1043.4,452.1,1047.5,452.1,1051.7,452.1z"/>
		<path class="st4" d="M384,478.8c4.1-15.2,8.5-30,12.4-44.9c0.5-1.9,0.1-2.5-1.8-2.5c-1,0-2.1-0.2-3.1-0.2
			c-2.8,0.2-2.3-1.8-2.4-3.5c-0.2-2.3,1.3-2,2.7-2c5.4,0,10.9,0,16.3,0c1.4,0,2.6,0,2.4,1.9c-0.1,1.5,0.5,3.7-2.1,3.4
			c-3.8-0.4-4.6,1.9-5.5,4.9c-4.7,16.7-9.6,33.2-14.4,49.9c-0.5,1.9-1,3.3-3.6,3.2c-2.4-0.1-3.6-0.6-4.4-3.1
			c-5.1-16.9-11.4-33.4-16-51.4c-2.1,8.1-4.1,15.3-6.5,22.4c-3.2,9.7-6.4,19.5-9.3,29.4c-0.8,2.5-2.2,2.6-4.3,2.7
			c-2.3,0.1-2.9-0.9-3.5-2.8c-4.9-17.1-9.9-34.1-14.8-51.2c-0.7-2.5-1.5-4.2-4.5-3.8c-2.5,0.3-2.6-1.2-2.7-3.2
			c-0.1-2.4,1.2-2.3,2.8-2.2c5.4,0,10.9,0.1,16.3,0c1.6,0,2.4,0.4,2.2,2.1c-0.2,1.4,0.6,3-1.8,3.4c-1.9,0.3-4.8-0.9-5.6,1.2
			c-0.6,1.6,0.8,3.9,1.4,5.9c3.4,12.9,7.7,25.6,10.2,38.8c0.1,0.5,0.4,1,0.9,2.1c2.4-9.3,5.1-17.9,7.8-26.4
			c2.6-8.1,5.2-16.3,7.7-24.4c0.7-2.2,1.7-2.8,3.9-2.7c2,0.1,3.2,0.3,3.9,2.7c4.8,16.1,10.5,32,14.8,48.3
			C383.5,477.4,383.8,478.1,384,478.8z"/>
		<path class="st3" d="M949.1,458.2c0-6.6-0.1-13.2,0.1-19.7c0.1-2.4-0.5-3.5-3-3.1c-0.8,0.1-1.6,0-2.4,0c-4.4,0-4.1,0-4.5-4.5
			c-0.3-3.8,1.2-4.4,4.5-4.2c5.4,0.2,5.5,0.1,5.4-5.5c0-5.5,0.3-10.8,3.4-15.6c5.4-8.4,16.2-8.8,23.6-7c0.9,0.2,1.4,0.6,1.2,1.7
			c-0.1,0.5-0.1,0.9-0.2,1.4c-0.7,5.4-0.7,5.4-6.1,5.5c-6.7,0.1-10.2,3.5-10.5,10.3c-0.4,9.4-0.4,9.4,8.9,9.4c1.4,0,3.5-0.9,4,0.8
			c0.7,2.3,0.6,4.8,0,7.2c-0.2,0.9-1.4,0.6-2.2,0.6c-2.7,0-5.3,0.1-8,0c-2-0.1-2.8,0.5-2.8,2.7c0.1,13.5,0.1,27,0,40.5
			c0,1.9,0.6,2.8,2.5,2.9c0.8,0,1.6,0.3,2.4,0.4c5.1,0.9,5.2,1.2,4.7,6.2c-0.1,1.5-0.7,2-2.1,2c-8.8,0-17.6,0-26.3,0
			c-1.7,0-2.5-0.7-2.1-2.2c0.4-1.9-1.6-4.6,1.8-5.5c1.6-0.4,3.2-0.7,4.8-0.8c2.5-0.1,3-1.3,2.9-3.6
			C949,471.3,949.1,464.8,949.1,458.2z"/>
		<path class="st3" d="M651.4,440.1c0,12.5,0.1,24.9,0,37.4c0,2.4,0.4,4.1,3.2,4c0.7,0,1.4,0.3,2,0.4c4.2,0.7,5.4,2.7,4.3,6.8
			c-0.3,1.3-1.1,1.3-2,1.3c-8.9,0-17.8,0-26.7,0c-1.3,0-1.7-0.6-1.9-1.8c-0.6-5-0.4-5.7,4.8-6.3c3.8-0.4,4.8-1.9,4.7-5.7
			c-0.2-21.5-0.2-42.9,0-64.4c0-3.3-1-4.6-4.1-4.7c-0.3,0-0.7-0.1-1-0.1c-4.1-0.7-5.6-3.2-4.3-7.1c0.5-1.5,1.6-1,2.5-1.1
			c5.2,0,10.4,0.1,15.6-0.1c2.3-0.1,2.9,0.7,2.9,2.9C651.3,414.5,651.4,427.3,651.4,440.1z"/>
		<path class="st4" d="M444.2,457.6c-6.6,0-13.2,0-19.7,0c-1.1,0-2.5-0.4-2.5,1.5c-0.1,9.9,4.7,22.3,16.5,24.7
			c7.5,1.5,14.7,0.1,21-4.6c0.9-0.7,1.9-2.6,3.1-0.3c0.9,1.6,2.7,3.1,0.2,4.9c-4,2.9-8.3,5.1-13.2,5.8c-19.3,2.8-32.7-7.6-34.5-27.1
			c-1-10.4,0.3-20.3,7.4-28.7c7.3-8.6,16.6-10.9,27.2-8.1c9.1,2.4,15.2,10.1,16.5,20.6c0.3,2.9,0.2,5.8,0.5,8.6
			c0.2,2.1-0.6,2.8-2.8,2.8C457.4,457.5,450.8,457.6,444.2,457.6z M441.9,430.6c-9.6,0-19.2,9.5-19.4,19.2c0,1.8,0.9,1.8,2.2,1.8
			c10.9,0,21.7,0,32.6,0c1.8,0,2.4-0.6,2.4-2.4C460.1,439.1,452.1,430.6,441.9,430.6z"/>
		<path class="st4" d="M264.2,457.6c-6.5,0-12.9,0.1-19.4,0c-2.2,0-3,0.5-2.9,2.9c0.2,11.5,6.6,21.3,16.1,23.3
			c7.6,1.6,14.9,0.2,21.4-4.4c0.9-0.6,1.8-2.7,3.1-0.4c1,1.7,2.8,3.1,0.1,5.2c-6.5,4.8-13.7,6.7-21.5,6c-13.8-1.1-23-9.4-25.4-23.7
			c-1.8-10.9-1.4-21.7,5.7-31.1c7-9.4,17.7-12.9,28.9-9.4c9.4,2.9,15.6,11.7,16.3,23.1c0.5,8.7,0.5,8.7-8,8.7
			C273.7,457.6,269,457.6,264.2,457.6z M260.9,451.5c5.4,0,10.9,0,16.3,0c1.4,0,2.5,0.1,2.5-1.9c-0.1-6.6-2.4-12.3-7.9-16.1
			c-5.7-3.9-12-4.2-18.1-1c-6.7,3.6-9.8,9.8-11.1,17.1c-0.4,2,1,1.9,2.3,1.9C250.2,451.5,255.5,451.5,260.9,451.5z"/>
		<path class="st3" d="M744.5,458.1c0-7.6-0.1-13.8,0-19.9c0-2.2-0.5-3.3-2.8-3c-0.3,0.1-0.7,0-1,0c-6.7,0-6.7-0.1-6.1-6.6
			c0.1-1.5,0.7-2.1,2.1-2c0.1,0,0.2,0,0.3,0c2.4-0.2,5.5,1.1,7-0.6c1.6-1.8,0.5-4.9,0.5-7.4c0.1-7.3,0-7.3,7.2-7.3
			c4.4,0,4.4,0,4.4,4.5c0,2.8,0.1,5.5,0,8.3c-0.1,1.8,0.6,2.5,2.4,2.4c2.2-0.1,4.4,0.1,6.6-0.1c2.5-0.2,3.3,0.8,3,3.1
			c-0.1,0.6-0.1,1.2,0,1.7c0.5,3-0.5,4-3.7,3.9c-8.2-0.2-8.3-0.1-8.3,8.2c0,9.8,0,19.6,0,29.4c0,6.8,2.4,9,9.1,8.5
			c1.4-0.1,3.4-1.3,4.2,0.2c1,1.9,1.1,4.2,1.4,6.4c0.2,1.2-1,1.4-1.9,1.7c-4.2,1.5-8.6,1.8-13,1c-6-1.2-9.7-5.3-10.8-11.6
			C743.9,471.6,744.9,464.1,744.5,458.1z"/>
		<path class="st3" d="M1002.5,434c1.8-1.5,3.5-2.9,5.2-4.3c1.9-1.7,4.1-3,6.7-3.5c2.8-0.5,6.7-1.7,8.2,0.5c1.7,2.4-0.3,6.2-0.7,9.3
			c-0.2,1.3-1.4,0.9-2.3,0.9c-2.3,0-4.6-0.2-6.9,0c-5.7,0.6-9.8,5.3-9.8,11c0,10,0.1,20.1,0,30.1c0,2.3,0.7,3.5,3,3.5
			c0.7,0,1.4,0.3,2,0.4c4.5,0.8,5.3,2.2,4.5,6.7c-0.3,1.5-1.2,1.4-2.2,1.4c-8.7,0-17.3,0-26,0c-1.2,0-2.6-0.1-2.3-1.7
			c0.3-2-1.4-4.4,1.3-5.9c0.4-0.2,0.9-0.2,1.3-0.3c6.9-1.3,6.9-1.3,6.9-8.5c0-11.4-0.1-22.9,0.1-34.3c0-2.7-0.6-4.1-3.5-4.1
			c-0.7,0-1.4-0.3-2-0.4c-3.8-0.6-5.3-3.3-4.1-7c0.5-1.4,1.6-1.1,2.6-1.1c4.9,0,9.7,0.1,14.6-0.1c2,0,3,0.4,3,2.6
			C1001.9,431,1002.3,432.6,1002.5,434z"/>
		<path class="st2" d="M574.5,195.5c10.4,0,18.6,8.2,18.6,18.7c0,10.7-8.2,19.1-18.7,19c-10.3-0.1-18.6-8.5-18.5-18.9
			C556,203.8,564.1,195.5,574.5,195.5z"/>
		<path class="st4" d="M200.5,480.3c5.2-15.8,11.1-30.5,16.6-45.3c1.1-2.8,0.8-4-2.4-3.8c-2.3,0.1-4.8,0.1-4.3-3.5
			c0.2-1.4,0.5-2,2-2c5.8,0.1,11.6,0.1,17.3,0c1.4,0,2.3,0.3,2,1.9c-0.2,1.3,0.9,3.7-1.6,3.4c-4.8-0.6-5.5,2.8-6.8,6
			c-6.3,16.2-12.6,32.5-18.8,48.7c-0.7,1.9-1.3,3.3-4,3.3c-2.8,0.1-3.4-1.5-4.2-3.5c-6.6-17-13.2-33.9-19.7-51
			c-0.9-2.4-2-3.7-4.6-3.4c-2.6,0.2-2.9-1.3-2.9-3.4c0-2.5,1.6-2,3-2c5.2,0,10.4,0,15.6,0c1.7,0,3,0,2.8,2.3c-0.1,1.7,0,3-2.4,3.2
			c-5.4,0.5-5.3,0.6-3.5,5.6C189.8,451.1,195.7,465,200.5,480.3z"/>
		<path class="st4" d="M490,440.3c0,13.1,0.1,26.1-0.1,39.2c0,2.9,0.9,4,3.7,3.9c1-0.1,2.1,0.2,3.1,0.1c2.3-0.1,2.9,0.9,2.9,3.1
			c0,2.5-1.3,2.4-3,2.4c-6.7,0-13.4,0-20.1,0c-1.5,0-3.1,0.4-3-2.1c0.1-1.9,0.1-3.2,2.6-3.4c6.9-0.6,6.9-0.7,6.9-7.5
			c0-22.9-0.1-45.8,0.1-68.7c0-2.8-0.7-4-3.6-3.8c-1.1,0.1-2.3-0.3-3.4-0.3c-2.3,0.1-2.5-1.2-2.6-3c-0.1-2.1,0.9-2.5,2.7-2.4
			c3.6,0.1,7.2,0.2,10.7,0c2.4-0.1,3.1,0.6,3.1,3.1C489.9,413.9,490,427.1,490,440.3z"/>
		<path class="st4" d="M524.5,440.4c0,13.1,0.1,26.1-0.1,39.2c0,2.6,0.7,3.9,3.4,3.7c1.1-0.1,2.3,0.2,3.5,0.2
			c2.3-0.1,2.9,0.9,2.9,3.1c0,2.6-1.4,2.4-3.1,2.4c-6.8,0-13.6-0.1-20.5,0c-1.8,0-2.7-0.4-2.7-2.5c0-2,0.5-2.9,2.6-3.1
			c7-0.6,7-0.7,7-7.8c0-22.5-0.1-45.1,0.1-67.6c0-3.2-0.3-5.2-4.1-4.6c-0.9,0.1-1.8-0.3-2.8-0.2c-2.4,0.2-2.8-1.1-2.8-3.2
			c0-2.3,1.3-2.3,2.9-2.3c3.7,0,7.4,0.1,11.1,0c2.2-0.1,2.7,0.8,2.7,2.8C524.5,413.8,524.5,427.1,524.5,440.4z"/>
		<path class="st4" d="M120.8,440.8c0,12.9,0.1,25.9-0.1,38.8c0,2.7,0.7,3.8,3.4,3.7c1.1-0.1,2.3,0.2,3.5,0.2
			c2.3-0.1,2.9,0.9,2.9,3.1c0,2.6-1.4,2.4-3.1,2.4c-6.8,0-13.6-0.1-20.5,0c-1.8,0-2.8-0.3-2.7-2.4c0-1.9,0.4-2.9,2.6-3.1
			c7.1-0.7,7.1-0.8,7.1-8c0-22.6,0-45.3,0.1-67.9c0-2.8-0.4-4.4-3.6-4c-1,0.1-2.1-0.3-3.1-0.2c-2.5,0.1-3-1.1-3-3.4
			c0-2.5,1.6-2.1,3-2.1c3.6,0,7.2,0.1,10.7-0.1c2.3-0.1,2.9,0.6,2.9,2.9C120.7,414,120.8,427.4,120.8,440.8z"/>
		<path class="st4" d="M156.1,454.3c0,8.5,0.1,17.1-0.1,25.6c0,2.3,0.6,3.4,3,3.3c1.4-0.1,2.8,0.2,4.1,0.2c2.4-0.1,2.4,1.3,2.5,3.1
			c0.1,2.3-1.1,2.3-2.8,2.3c-6.9-0.1-13.9-0.1-20.8,0c-1.9,0-2.7-0.4-2.7-2.5c0-1.9,0.4-2.9,2.6-3.1c7.1-0.6,7.1-0.7,7.1-7.7
			c0-13.5-0.1-27,0.1-40.5c0-2.8-0.6-4.1-3.6-3.8c-1.1,0.1-2.3-0.2-3.5-0.2c-2.4,0.1-2.6-1.3-2.7-3.3c-0.1-2.4,1.3-2.2,2.8-2.2
			c3.6,0,7.2,0.2,10.7,0c2.4-0.1,3.2,0.5,3.1,3C156,437.2,156.1,445.8,156.1,454.3z"/>
		<path class="st4" d="M156,402.1c0.1,3.4,0.9,6.2-3.8,5.7c-2.6-0.3-3.4-1-3.1-3.4c0.1-1.1-0.1-2.3,0.1-3.4c0.1-1.1-0.7-2.7,0.8-3
			c1.9-0.4,4.1-0.9,5.7,0.2C156.9,399.1,155.7,401.2,156,402.1z"/>
		<path class="st5" d="M665.8,347.7c-20.6,0-36.9-16.6-36.9-37.5c0-21,16.1-37.6,36.8-37.7c20-0.1,36,16.6,36,37.5
			C701.8,330.9,685.8,347.7,665.8,347.7z"/>
		<path class="st5" d="M437.3,295c-10,0-20.1-0.1-30.1,0c-2.6,0-2.9-0.7-1.9-2.9c5-12,18.4-20.6,32.3-20.7
			c13.9-0.1,27.3,8.6,32.4,20.5c1.1,2.6,0.4,3.1-2.2,3.1C457.6,295,447.5,295,437.3,295z"/>
		<path class="st5" d="M264,309.9c0.1-18,9.9-32.1,25.7-36.1c27.6-6.8,49,12.3,46.4,40.5c-1.5,15.6-9.2,27.3-24.8,31.7
			C286.2,353,264,337.5,264,309.9z"/>
		<path class="st5" d="M608.9,458.1c0,3.1-0.4,6.3,0.1,9.3c1.4,9.6-8.3,14.9-15.8,14.4c-7.1-0.5-11.7-4.3-13.6-10.9
			c-2.9-9.9-2.3-19.7,2.5-28.9c2.7-5.1,7.4-7.1,13-7c5.9,0.2,10.4,2.9,13.3,8c1.3,2.3,0.4,5,0.5,7.5
			C609,453,608.9,455.6,608.9,458.1z"/>
		<path class="st5" d="M803.1,452.1c-4,0-8.1,0-12.1,0c-1.4,0-2.4-0.1-2.3-2c0.5-8.7,8.4-16,16.8-15.3c7.3,0.6,13.4,8.4,12.4,15.7
			c-0.2,1.7-1.2,1.7-2.4,1.7C811.4,452.1,807.2,452.1,803.1,452.1z"/>
		<path class="st5" d="M1110.8,452.1c-4.1,0-8.3,0-12.4,0c-1.3,0-2.1-0.1-2.1-1.9c0.3-8.6,8.3-16.1,16.7-15.5
			c7.3,0.5,13.4,8.2,12.5,15.5c-0.2,1.6-0.9,1.8-2.3,1.8C1119.1,452.1,1115,452.1,1110.8,452.1z"/>
		<path class="st5" d="M1051.7,452.1c-4.1,0-8.3,0-12.4,0c-1.2,0-2.2,0-2.1-1.8c0.3-8.9,8.7-16.5,17.3-15.5c7,0.8,13,8.9,11.8,15.8
			c-0.3,1.8-1.4,1.5-2.5,1.5C1059.8,452.1,1055.7,452.1,1051.7,452.1z"/>
		<path class="st5" d="M441.9,430.6c10.2,0,18.2,8.5,17.8,18.6c-0.1,1.8-0.6,2.4-2.4,2.4c-10.9-0.1-21.7,0-32.6,0
			c-1.2,0-2.2,0.1-2.2-1.8C422.7,440,432.3,430.6,441.9,430.6z"/>
		<path class="st5" d="M260.9,451.5c-5.3,0-10.6,0-15.9,0c-1.3,0-2.7,0.1-2.3-1.9c1.3-7.3,4.3-13.5,11.1-17.1
			c6.1-3.2,12.4-2.9,18.1,1c5.5,3.8,7.8,9.5,7.9,16.1c0,2-1.1,1.9-2.5,1.9C271.7,451.5,266.3,451.5,260.9,451.5z"/>
	</g>
</g>
</svg>
