<?xml version="1.0" encoding="utf-8"?>
<!-- Generator: Adobe Illustrator 19.1.0, SVG Export Plug-In . SVG Version: 6.00 Build 0)  -->
<svg version="1.1" id="Layer_1" xmlns="http://www.w3.org/2000/svg" xmlns:xlink="http://www.w3.org/1999/xlink" x="0px" y="0px"
	 viewBox="0 0 2048 2048" style="enable-background:new 0 0 2048 2048;" xml:space="preserve">
<style type="text/css">
	.st0{fill:#FFFFFF;}
	.st1{fill:#0EA1CC;}
</style>
<g>
	<g>
		<path class="st0" d="M1320.9,1447.9c22.9,63,44.8,123.3,66.5,183.6c3.5,9.8,10.9,8.5,18.3,8.2c47.6-2.3,94.6-8.8,140.8-21.1
			c91.7-24.6,150.2-80.6,171.6-175c21.2-93.6,20.7-186.4-2.6-279.2c-18.2-72.2-60.9-125.2-131-150.8c-128.6-47-258.8-46.6-387.5-0.5
			c-62.4,22.3-104.3,68.4-124.9,131.4c-15.4,47-23.4,95.9-23.5,145.5c-0.3,156.7-0.1,313.3-0.6,470c0,12.4,4.1,15.4,15.9,15.3
			c57.4-0.5,114.8-0.9,172.2,0.2c16.2,0.3,19.8-4.8,19.8-20.2c-0.6-145.8-0.3-291.5-0.4-437.3c0-16.7,1.1-33.2,3.4-49.7
			c7.9-57.5,32.9-89.6,81.1-101c33.3-7.9,67.3-7.2,100.6-0.4c35.1,7.2,60.5,28.5,71.9,62.6c17,50.8,17.2,102.6,1.8,154.1
			c-10.7,35.9-34.3,59.5-70.9,67.8C1403.5,1460.3,1363.7,1458.6,1320.9,1447.9z M1048.3,603.8c-1.2,39.8,4.2,78.9,11.3,118
			c17,94,67.5,159.4,160.8,187.4c108.7,32.6,218,33.5,327.5,3.7c90.2-24.6,148.1-80,169.6-173c21.8-94.1,21.3-187.5-2-280.9
			c-19.8-79.2-69.1-132.8-146.4-157.7c-119.3-38.5-239.4-38.3-358.7,0.4c-70.2,22.8-117.7,70.5-139.7,140.9
			C1054.3,494.8,1046.9,548.8,1048.3,603.8z M1000.7,1307.3c1.3-37.4-4.2-77.1-11.5-116.7c-15.8-85.9-59.3-151-143.9-180.2
			c-123.8-42.7-249.1-42.6-373.2,0c-70.5,24.2-116,74.7-136,146.3c-28,99.9-28.2,200.3-1.3,300.6c19.3,71.9,62.8,123.8,132.9,149.3
			c118.6,43.1,239.1,43.5,359.8,8.1c83.7-24.5,135.8-79.8,156.4-164.8C995.2,1404,1001.6,1357.6,1000.7,1307.3z M896.9,603.5
			c29.8,0,59.7-0.4,89.5,0.2c11.4,0.3,14.8-3.5,14.5-14.8c-0.8-42.1-6.9-83.3-16.5-124.2c-20.6-88.2-75.2-143.4-161.6-168.2
			c-113.3-32.5-226.5-31.5-339,3.2c-71.2,21.9-121.4,68.5-143.9,139.1c-32.7,102.2-33,206.4-5.8,310.4
			c20.8,79.5,70.2,132.8,148.6,157.7c118.3,37.5,237.2,37.2,355.2-0.9c75.4-24.4,123.2-76.7,144.4-153.4c3.6-13.2,0.3-18.9-12-24.4
			c-54.4-24.5-108.5-49.7-162.2-75.7c-14.5-7-18.6-5.2-21.9,11c-10.5,52.3-40.6,78.3-93.7,85.7c-25.3,3.5-50.2,2.9-75.3-0.9
			c-40.6-6.2-68.6-28.3-81.3-67.4c-15.8-48.7-15.8-98.1-2.1-147.5c11.2-40.4,37.3-65,78.4-73c31.3-6.1,62.9-6,94,0.2
			c40.2,8,66,32.4,77.4,72.1c5.4,18.8,8.5,38.1,9.4,57.6c0.5,10.5,4,13.7,14.3,13.5C837.2,603.1,867,603.5,896.9,603.5z"/>
		<path class="st1" d="M1320.9,1447.9c42.8,10.8,82.6,12.5,122.2,3.5c36.6-8.3,60.2-31.9,70.9-67.8c15.4-51.5,15.2-103.3-1.8-154.1
			c-11.4-34.1-36.8-55.3-71.9-62.6c-33.3-6.8-67.3-7.5-100.6,0.4c-48.2,11.4-73.2,43.5-81.1,101c-2.3,16.5-3.4,33-3.4,49.7
			c0.1,145.8-0.1,291.5,0.4,437.3c0.1,15.4-3.5,20.5-19.8,20.2c-57.4-1-114.8-0.7-172.2-0.2c-11.7,0.1-15.9-2.9-15.9-15.3
			c0.4-156.7,0.2-313.3,0.6-470c0.1-49.7,8.2-98.5,23.5-145.5c20.6-63,62.5-109.1,124.9-131.4c128.7-46.1,258.9-46.5,387.5,0.5
			c70.1,25.6,112.8,78.6,131,150.8c23.3,92.8,23.8,185.6,2.6,279.2c-21.4,94.5-79.9,150.4-171.6,175
			c-46.2,12.4-93.1,18.9-140.8,21.1c-7.4,0.4-14.7,1.6-18.3-8.2C1365.7,1571.1,1343.7,1510.9,1320.9,1447.9z"/>
		<path class="st1" d="M1048.3,603.8c-1.4-55,6.1-109,22.4-161.3c22-70.5,69.5-118.2,139.7-140.9c119.3-38.7,239.4-38.9,358.7-0.4
			c77.4,25,126.6,78.5,146.4,157.7c23.3,93.4,23.8,186.8,2,280.9c-21.6,93-79.4,148.4-169.6,173c-109.5,29.9-218.8,29-327.5-3.7
			c-93.3-28-143.8-93.4-160.8-187.4C1052.5,682.7,1047.1,643.6,1048.3,603.8z M1524.5,603.1c1.3-22.8-2.6-46-8.7-68.7
			c-11-40.9-37.4-66.4-79.2-74.5c-31.2-6-62.9-6.2-94.1,0.2c-39.8,8.3-66.1,32.1-77.3,72c-10.7,38.2-12.7,76.7-6.4,115.7
			c7.8,48.1,28.1,86.8,79.8,98.5c36.1,8.2,72.9,8.2,108.9-1.6c32.8-9,54.7-30.9,65.3-62.9C1521.2,656.8,1525.8,630.8,1524.5,603.1z"
			/>
		<path class="st1" d="M1000.7,1307.3c0.9,50.3-5.5,96.7-16.7,142.6c-20.7,85-72.8,140.2-156.4,164.8
			c-120.6,35.3-241.2,34.9-359.8-8.1c-70-25.4-113.6-77.3-132.9-149.3c-26.9-100.3-26.8-200.7,1.3-300.6
			c20.1-71.6,65.5-122.1,136-146.3c124-42.5,249.3-42.6,373.2,0c84.6,29.2,128.1,94.3,143.9,180.2
			C996.5,1230.2,1002,1269.9,1000.7,1307.3z M524.4,1310c-0.9,23.6,3.2,47.8,10,71.7c10.1,35.4,32.5,59.3,68,68.9
			c30.1,8.1,61,7.3,92.1,4.3c40.1-3.8,74.5-28.9,87-67.6c15.5-47.7,16.2-95.8,3.5-144.2c-12.7-48.6-43.7-73.8-93.9-79
			c-23.1-2.4-45.7-1.5-68.6,0.3c-40.1,3.2-74.6,29.4-86.8,67.9C527.7,1257.2,523.7,1282.6,524.4,1310z"/>
		<path class="st1" d="M896.9,603.5c-29.8,0-59.7-0.4-89.5,0.2c-10.3,0.2-13.8-3-14.3-13.5c-1-19.4-4.1-38.7-9.4-57.6
			c-11.3-39.6-37.2-64-77.4-72.1c-31.2-6.2-62.8-6.3-94-0.2c-41.1,8-67.2,32.6-78.4,73c-13.7,49.4-13.7,98.8,2.1,147.5
			c12.7,39.1,40.7,61.2,81.3,67.4c25.1,3.8,50,4.4,75.3,0.9c53.1-7.4,83.2-33.4,93.7-85.7c3.2-16.2,7.4-18,21.9-11
			c53.7,26,107.8,51.2,162.2,75.7c12.3,5.5,15.6,11.2,12,24.4c-21.2,76.7-69,129.1-144.4,153.4c-118,38.1-236.8,38.4-355.2,0.9
			c-78.4-24.9-127.8-78.2-148.6-157.7C307,645.2,307.3,541,340,438.8c22.5-70.5,72.7-117.1,143.9-139.1
			c112.6-34.7,225.7-35.7,339-3.2c86.4,24.8,141,80,161.6,168.2c9.6,40.9,15.7,82.1,16.5,124.2c0.2,11.2-3.1,15-14.5,14.8
			C956.6,603,926.7,603.5,896.9,603.5z"/>
	</g>
</g>
</svg>
