<?xml version="1.0" encoding="utf-8"?>
<!-- Generator: Adobe Illustrator 17.0.2, SVG Export Plug-In . SVG Version: 6.00 Build 0)  -->
<!DOCTYPE svg PUBLIC "-//W3C//DTD SVG 1.1//EN" "http://www.w3.org/Graphics/SVG/1.1/DTD/svg11.dtd">
<svg version="1.1" id="Layer_1" xmlns="http://www.w3.org/2000/svg" xmlns:xlink="http://www.w3.org/1999/xlink" x="0px" y="0px"
	 width="500px" height="500px" viewBox="0 0 500 500" enable-background="new 0 0 500 500" xml:space="preserve">
<g>
	<path fill="#FFFFFF" d="M307.061,463.525c0.442-0.096,0.896-0.313,1.324-0.269c3.279,0.338,4.956-0.283,2.806-3.936
		c-1.436-2.44-1.304-5.263-1.306-8.013c-0.065-75.761-0.11-151.523-0.276-227.284c-0.01-4.713,1.19-8.185,5.094-11.147
		c6.6-5.006,9.853-11.801,9.043-20.297c-0.194-2.035,0.025-4.106-0.036-6.158c-0.141-4.702-0.163-4.811-5.13-4.822
		c-20.082-0.045-40.163-0.018-60.245-0.015c-0.913,0-1.825,0.032-2.738,0.037c-1.686,0.009-2.495,1.01-2.596,2.536
		c-0.727,10.913-0.402,21.585,9.445,28.95c3.879,2.902,5.204,6.379,5.155,11.121c-0.192,18.422-0.21,36.849-0.063,55.272
		c0.433,54.201-0.844,108.407,0.528,162.611c0.133,5.269,0.093,10.807-0.661,16.196c-0.359,2.566-0.914,3.821-3.963,4.053
		c-3.643,0.277-6.743,3.184-7.248,6.397c-0.467,2.968-1.119,5.531-2.191,8.361c-1.801,4.753-0.87,10.1-1.048,15.203
		c-0.11,3.142,0.773,4.781,4.216,4.37c1.575-0.188,3.191-0.03,4.788-0.029c9.356,0.003,18.72-0.232,28.066,0.077
		c9.387,0.31,18.725-0.895,28.134-0.252c8.064,0.551,16.192,0.216,24.291,0.157c1.928-0.014,4.094,0.701,6.017-1.269
		c-1.349-2.25-2.547-4.608-4.096-6.707c-1.023-1.387-2.549-2.403-3.874-3.607c4.574,0.709,4.576,0.708,6.167,4.843
		c0.246,0.638,0.585,1.266,0.69,1.928c0.625,3.942,3.077,4.99,6.79,4.89c7.069-0.19,14.147-0.061,21.221-0.048
		c2.885,0.005,5.676,0.364,7.382-3.09c0.729-1.476,3.026-1.751,4.768-0.959c0.892,1.559-3.207,2.783-0.52,3.584
		c3.182,0.949,6.275-0.983,8.359-3.5c1.398-1.688,3.84-3.916,0.181-6.051c-0.503-0.293-0.923-0.967,0.046-1.411
		c3.173-1.454,1.778-4.455,1.929-6.669c0.42-6.125,0.349-12.286,0.369-18.434c0.017-5.475-0.019-10.954-0.216-16.424
		c-0.061-1.688,0.075-4.061-2.551-4.086c-9.772-0.092-19.64-1.207-29.165,2.053c-5.1,1.745-7.393,5.487-7.913,10.821
		c-0.861,8.825-1.872,9.466-10.491,9.649c-4.972,0.106-10.035-0.904-14.902,1.053c-4.847,1.948-9.759,3.737-14.605,5.687
		c-5.066,2.038-5.533,2.637-3.239,7.459c1.863,3.917,2.255,8.263,4.221,12.081c0.748,1.453,0.599,2.646-0.8,3.496
		c-1.379,0.838-2.045-0.451-2.732-1.203c-2.21-2.418-3.515-5.358-3.841-8.562c-0.186-1.827-0.056-3.7-1.134-5.244
		c-2.849-4.084-2.804-8.847-3.361-13.478L307.061,463.525z"/>
	<path fill="#FFFFFF" d="M153.372,200.427c4.91-3.765,5.783-7.552,3.302-12.861c-2.632-5.631-1.993-5.936-7.851-5.955
		c-7.299-0.022-14.597-0.044-21.896-0.046c-14.787-0.002-29.574-0.024-44.361,0.034c-5.005,0.02-5.047,0.119-5.176,4.832
		c-0.081,2.964-0.397,5.993,0.068,8.885c1.225,7.624,2.344,15.362,10.111,19.787c2.976,1.696,4.141,4.728,4.192,8.144
		c0.071,4.785,0.234,9.57,0.228,14.355c-0.047,34.434-0.12,68.869-0.21,103.303c-0.008,2.982-0.089,5.801,2.648,8.008
		c0.687,0.554,2.78,2.821,0.413,3.829c-3.785,1.612-3.019,4.619-3.021,7.465c-0.02,30.078-0.143,60.158,0.087,90.235
		c0.049,6.441-1.567,11.245-6.84,15.346c-3.318,2.58-6.527,6.066-6.826,10.909c-0.323,5.224-0.487,10.46-0.9,15.677
		c-0.263,3.326,1.118,4.417,4.336,4.345c6.795-0.153,13.595-0.037,20.393-0.038c16.873-0.001,33.746,0.088,50.618-0.041
		c12.713-0.097,25.51,1.008,38.049-2.221c3.826-0.985,8.042-0.974,10.467-5.063c0.626-1.056,2.332-2.342,3.301-2.169
		c3.524,0.628,5.59-2.293,8.447-3.198c4.001-1.268,7.446-4.777,8.569-9.003c0.424-1.595,0.731-2.609,1.924-3.592
		c3.438-2.834,5.251-6.69,6.809-10.76c3.882-10.146,5.492-20.713,5.517-31.477c0.103-44.711,0.308-89.425-0.092-134.133
		c-0.157-17.554,2.045-35.204-1.379-52.68c2.119-7.42-0.571-14.355-2.604-21.182c-5.574-18.716-18.596-30.028-36.854-35.951
		c-2.536-0.823-3.61,0.375-5.537,1.466c-3.178,1.8-1.226-3.936-4.716-3.954c-7.427-0.037-14.819-1.975-22.217-0.796
		c-0.911,2.301,0.384,3.845,1.403,5.24c1.824,2.499,1.555,5.531,2.379,8.262c0.521,1.724,0.434,4.864-2.131,4.987
		C160.856,200.569,157.584,201.759,153.372,200.427z"/>
	<path fill="#FFFFFF" d="M360.325,111.854c0.871-0.361,1.401-0.787,1.665-0.66c4.655,2.249,4.69,2.304,8.186-1.324
		c2.847-2.955,5.68-5.935,8.329-9.065c2.494-2.946,6.124-5.842,6.763-9.23c0.903-4.786,5.71-5.311,7.252-9.172
		c1.577-3.947,3.97-7.686,6.203-11.332c10.608-17.324,16.806-36.205,20.784-55.938c0.872-4.328,0.305-4.889-3.962-4.586
		c-3.865,0.274-7.726,0.618-11.578,1.033c-3.821,0.412-7.501,1.896-11.463,1.374c-0.936-0.123-2.405-0.279-2.372,1.495
		c0.023,1.259-0.766,1.587-1.72,1.231c-5.976-2.233-11.599,0.04-17.34,1.187c-38.776,7.744-73.282,24.291-103.237,50.145
		c-14.227,12.279-26.564,26.282-37.149,41.82c-1.277,1.875-2.73,3.594-1.714,6.215c5.586,14.407,9.228,29.383,12.698,44.396
		c0.727,3.144,2.002,4.555,5.532,4.228c9.535-0.884,18.979-2.288,28.34-4.246c30.59-6.396,58.48-18.609,82.699-38.64
		c2.395-1.98,4.948-3.859,6.684-6.326C363.861,112.292,361.635,113.734,360.325,111.854z"/>
	<path fill="#FFFFFF" d="M225.425,166.038c2.282,0,4.566,0.062,6.846-0.012c6.214-0.202,6.442-0.325,4.921-6.26
		c-10.173-39.691-27.062-75.999-54.79-106.629c-20.814-22.992-45.871-39.405-76.065-47.502c-3.319-0.89-6.544-1.922-9.924-0.222
		c-1.481,0.745-2.432,0.686-1.864-1.527c0.252-0.981-1.005-1.532-1.842-1.553C86.615,2.184,80.794,0.054,74.675,0
		c-2.511-0.022-3.342,0.89-2.99,3.196c0.582,3.817,1.053,7.658,1.824,11.438c1.366,6.695,2.742,13.398,4.448,20.012
		c1.648,6.393,3.514,12.748,5.658,18.991c2.218,6.459,5.039,12.709,7.313,19.151c2.198,6.228,5.934,11.716,9.048,17.362
		C127.129,139.393,168.717,165.364,225.425,166.038z"/>
	<path fill="#5D792C" d="M153.372,200.427c4.212,1.332,7.484,0.142,10.648-0.01c2.565-0.123,2.652-3.263,2.131-4.987
		c-0.825-2.731-0.555-5.764-2.379-8.262c-1.018-1.395-2.313-2.939-1.403-5.24c7.398-1.179,14.789,0.758,22.217,0.796
		c3.49,0.018,1.538,5.754,4.716,3.954c1.927-1.092,3.002-2.289,5.537-1.466c18.258,5.923,31.279,17.235,36.854,35.951
		c2.033,6.827,4.723,13.762,2.604,21.182c3.424,17.476,1.222,35.127,1.379,52.68c0.401,44.708,0.195,89.422,0.092,134.133
		c-0.025,10.764-1.635,21.332-5.517,31.477c-1.557,4.07-3.371,7.926-6.809,10.76c-1.192,0.983-1.5,1.997-1.924,3.592
		c-1.123,4.226-4.569,7.735-8.569,9.003c-2.857,0.905-4.923,3.826-8.447,3.198c-0.969-0.173-2.675,1.113-3.301,2.169
		c-2.425,4.089-6.641,4.078-10.467,5.063c-12.539,3.229-25.336,2.123-38.049,2.221c-16.872,0.129-33.745,0.039-50.618,0.041
		c-6.798,0.001-13.599-0.115-20.393,0.038c-3.219,0.072-4.6-1.019-4.336-4.345c0.413-5.217,0.577-10.452,0.9-15.677
		c0.299-4.842,3.508-8.328,6.826-10.909c5.273-4.101,6.889-8.905,6.84-15.346c-0.231-30.077-0.107-60.156-0.087-90.235
		c0.002-2.845-0.763-5.853,3.021-7.465c2.367-1.008,0.273-3.276-0.413-3.829c-2.737-2.207-2.656-5.025-2.648-8.008
		c0.091-34.434,0.163-68.869,0.21-103.303c0.007-4.785-0.156-9.57-0.228-14.355c-0.051-3.416-1.216-6.448-4.192-8.144
		c-7.766-4.426-8.886-12.163-10.111-19.787c-0.465-2.892-0.149-5.921-0.068-8.885c0.129-4.712,0.171-4.812,5.176-4.832
		c14.787-0.059,29.574-0.037,44.361-0.034c7.299,0.001,14.597,0.023,21.896,0.046c5.858,0.018,5.218,0.323,7.851,5.955
		C159.156,192.875,158.282,196.662,153.372,200.427z M190.708,446.939c2.384-6.702,2.761-13.031,2.754-19.452
		c-0.05-41.247-0.006-82.494-0.052-123.742c-0.004-3.861,1.553-7.947,0.909-11.33c-1.344-7.058-0.566-14.013-0.81-20.991
		c-0.317-9.049,0.328-18.151-0.329-27.165c-0.788-10.805-3.83-20.738-15.212-25.457c-0.719-0.298-1.891-0.177-1.874-1.548
		c0.051-4.104-3.513-6.578-4.647-10.235c-1.469-4.736-5.421-5.362-9.701-1.939c5.361,0.997,9.144,5.433,10.005,12.059
		c-9.812,0-19.579-0.052-29.346,0.017c-7.133,0.051-8.774,1.678-8.832,8.92c-0.089,10.932-0.023,21.865-0.026,32.798
		c-0.013,51.763-0.031,103.527-0.038,155.29c-0.002,12.997,0.031,25.994,0.052,38.991c0.005,2.978-0.353,6.979,2.843,7.738
		c4.339,1.031,5.675,3.704,6.922,7.183c0.429,1.198,1.456,2.267,3.2,2.044c1.017-2.819-2.142-4.926-1.107-8.206
		c7.197,0,14.683,0.107,22.165-0.028c8.603-0.156,16.503-2.3,20.77-10.592c2.189-4.254,3.917-2.201,6.793-0.432
		c-4.495,3.506-6.894,8.559-13.345,10.929c6.44-0.181,10.593-3.604,15.65-3.897c2.044-0.118,3.889-2.536,2.787-3.747
		C197.729,451.387,196.344,446.883,190.708,446.939z M214.567,468.971c-2.557-7.14-3.951-14.831-7.767-21.651
		c-1.412-2.523-3.219-4.928-3.024-8.033c0.047-0.742,0.093-1.294-0.749-1.411c-0.429-0.06-1.236-0.017-1.268,0.121
		c-0.167,0.71-0.085,1.372,0.304,2.127C206.858,449.423,210.764,459.096,214.567,468.971z M198.88,477.17
		c2.255-0.374,4.269-2.091,5.173-3.813c1.275-2.431,6.066-1.198,4.888-2.859c-2.517-3.547-2.07,2.711-4.357,2.252
		c-0.855-0.172-1.811-0.001-2.692,0.165c-1.117,0.21-2.194,0.76-3.308,0.829c-1.651,0.103-0.837,1.048-0.762,1.75
		C197.891,476.147,197.795,476.915,198.88,477.17z M197.599,487.618c2.224-4.178,6.104-4.625,8.18-7.276
		C197.188,481.936,197.188,481.936,197.599,487.618z M211.25,205.029c-0.823,0.982-1.051,3.09,0.919,2.981
		c1.86-0.103,2.953-2.146,2.769-4.527c-0.134-1.735-0.296-3.303-2.302-3.182c-2.35,0.142-1.357,2.171-1.485,3.515
		C211.131,204.033,211.184,204.257,211.25,205.029z M191.472,192.935c-2.576,0.432-5.319,0.914-7.31,2.96
		C188.271,198.76,188.6,193.321,191.472,192.935z M202.954,352.295c-0.226-5.15-0.226-5.15-3.077-6.69
		C200.258,347.956,201.33,349.678,202.954,352.295z M216.578,232.062c1.592-0.783,1.546-2.396,1.695-3.82
		c0.064-0.605-0.546-1.352-1.26-1.195c-1.323,0.292-2.587,0.97-2.406,2.583C214.725,230.683,215.276,231.706,216.578,232.062z
		 M87.426,473.361c-2.717,0.528-4.448,0.943-4.587,3.145c-0.028,0.442,0.822,1.341,1.272,1.344
		C86.544,477.867,86.128,475.541,87.426,473.361z M99.431,344.896c0.116,2.033-0.125,4.123,1.812,5.53
		C102.826,347.811,101.139,346.383,99.431,344.896z M221.931,440.993c-1.025-2.207-2.384-2.62-4.034-1.93
		c-1.166,0.487-0.041,0.928,0.107,1.415C218.941,443.569,220.564,441.182,221.931,440.993z M105.533,430.876
		c-0.026-0.21,0.028-0.518-0.091-0.614c-0.974-0.788-1.704-2.112-3.244-1.736c-0.236,0.058-0.556,0.834-0.438,1.1
		c0.519,1.17,1.961,0.603,2.763,1.317C104.974,431.346,105.3,431.334,105.533,430.876z M210.354,234.568
		c-0.158-0.365-0.256-1.002-0.483-1.052c-1.602-0.351-1.492,1.275-2.123,2.035c-0.141,0.17,0.227,1.095,0.343,1.092
		C209.399,236.605,209.897,235.595,210.354,234.568z M100.335,185.981c-0.439-0.202-0.684,0.047-0.503,0.604
		c0.265,0.815,0.723,1.555,1.715,1.654c0.558,0.056,0.923-0.332,0.62-0.692C101.638,186.918,100.91,186.455,100.335,185.981z
		 M110.236,295.251c0.391-1.187-0.323-1.382-0.941-1.396c-0.663-0.015-1.231,0.383-1.285,1.134
		c-0.056,0.781,0.532,1.126,1.165,1.232C110.052,296.37,110.101,295.574,110.236,295.251z M105.595,219.88
		c-0.074-1.197-0.868-1.074-1.779-0.596c-0.913,0.479-2.427,0.504-2.067,2.096c0.246,1.09,1.304,0.98,2.185,0.946
		C105.409,222.269,105.772,221.362,105.595,219.88z M221.012,265.456c-0.85,0.097-1.082,0.678-1.006,1.398
		c0.045,0.431,0.146,1.121,0.4,1.215c0.804,0.298,1.193-0.311,1.307-1.016C221.818,266.405,221.777,265.749,221.012,265.456z
		 M136.922,207.242c0.7-0.048,1.477-0.046,1.27-1.019c-0.065-0.305-0.67-0.777-0.89-0.711c-0.584,0.175-1.436,0.504-1.563,0.949
		C135.452,207.466,136.52,206.987,136.922,207.242z M202.145,252.492c0.221,0.334,0.376,0.839,0.68,0.955
		c0.298,0.114,1.039-0.106,1.078-0.287c0.147-0.689-0.26-1.235-0.957-1.325C202.711,251.805,202.414,252.258,202.145,252.492z"/>
	<path fill="#5D792C" d="M307.15,463.447c0.557,4.631,0.511,9.394,3.361,13.478c1.077,1.544,0.948,3.417,1.134,5.244
		c0.326,3.203,1.631,6.144,3.841,8.562c0.687,0.752,1.354,2.041,2.732,1.203c1.399-0.85,1.548-2.044,0.8-3.496
		c-1.966-3.818-2.358-8.164-4.221-12.081c-2.293-4.822-1.827-5.421,3.239-7.459c4.847-1.95,9.758-3.739,14.605-5.687
		c4.867-1.956,9.93-0.947,14.902-1.053c8.619-0.183,9.631-0.824,10.491-9.649c0.52-5.334,2.813-9.076,7.913-10.821
		c9.525-3.26,19.393-2.144,29.165-2.053c2.626,0.025,2.49,2.398,2.551,4.086c0.197,5.471,0.233,10.949,0.216,16.424
		c-0.019,6.147,0.051,12.309-0.369,18.434c-0.152,2.214,1.244,5.215-1.929,6.669c-0.969,0.444-0.549,1.117-0.046,1.411
		c3.66,2.135,1.217,4.363-0.181,6.051c-2.084,2.517-5.178,4.448-8.359,3.5c-2.687-0.801,1.412-2.026,0.52-3.584
		c-1.742-0.792-4.039-0.517-4.768,0.959c-1.706,3.454-4.497,3.095-7.382,3.09c-7.074-0.013-14.152-0.142-21.221,0.048
		c-3.712,0.1-6.165-0.948-6.79-4.89c-0.105-0.663-0.444-1.29-0.69-1.928c-1.591-4.135-1.593-4.134-6.167-4.843
		c1.324,1.204,2.85,2.22,3.874,3.607c1.549,2.1,2.748,4.457,4.096,6.707c-1.924,1.97-4.09,1.255-6.017,1.269
		c-8.099,0.06-16.227,0.394-24.291-0.157c-9.41-0.642-18.747,0.563-28.134,0.252c-9.346-0.309-18.71-0.073-28.066-0.077
		c-1.597,0-3.214-0.159-4.788,0.029c-3.442,0.412-4.325-1.228-4.216-4.37c0.178-5.103-0.753-10.449,1.048-15.203
		c1.073-2.83,1.725-5.393,2.191-8.361c0.505-3.212,3.605-6.12,7.248-6.397c3.049-0.232,3.604-1.487,3.963-4.053
		c0.754-5.389,0.794-10.927,0.661-16.196c-1.372-54.204-0.095-108.41-0.528-162.611c-0.147-18.423-0.129-36.85,0.063-55.272
		c0.049-4.742-1.276-8.219-5.155-11.121c-9.847-7.366-10.172-18.038-9.445-28.95c0.102-1.525,0.911-2.527,2.596-2.536
		c0.913-0.005,1.825-0.037,2.738-0.037c20.082-0.003,40.163-0.03,60.245,0.015c4.966,0.011,4.989,0.12,5.13,4.822
		c0.061,2.052-0.158,4.123,0.036,6.158c0.81,8.496-2.443,15.291-9.043,20.297c-3.905,2.962-5.105,6.433-5.094,11.147
		c0.167,75.761,0.211,151.523,0.276,227.284c0.002,2.75-0.13,5.573,1.306,8.013c2.15,3.654,0.474,4.274-2.806,3.936
		c-0.427-0.044-0.882,0.173-1.324,0.269c0.012-0.223,0.049-0.447,0.031-0.667c-0.176-2.096,0.753-4.579-1.945-5.789
		c-0.215-0.097-0.943,0.32-0.993,0.583C303.636,460.341,304.357,462.445,307.15,463.447z M285.892,464.495
		c-0.484-0.544-0.968-1.088-1.452-1.631c-0.584-1.504-1.734-2.555-2.733-0.765c-1.652,2.961-3.987,5.701-4.572,9.441
		c0.893-0.131,1.394-0.066,1.723-0.275c2.925-1.856,4.399-5.835,8.674-5.914C287.766,465.346,286.677,464.475,285.892,464.495z
		 M280.938,280.373c3.16-2.828,0.75-5.952-0.015-8.661c-0.416-1.473-2.921,0.379-3.157,0.278
		C282.112,272.47,278.484,278.077,280.938,280.373z M276.571,453.294c0.387-3.03-1.46-4.524-1.707-6.607
		c-0.228-1.922-1.738-1.75-3.017-0.842c-2.835,2.014-2.651,4.806,0.467,6.291C273.487,452.694,274.853,452.843,276.571,453.294z
		 M341.945,478.146c-0.94-1.762-1.879-3.524-2.819-5.285C339.28,475.045,339.294,477.306,341.945,478.146z M281.834,422.009
		c0.334-0.922,0.13-1.041-0.484-0.92c-0.899,0.178-1.767,0.411-1.799,1.513c-0.008,0.265,0.675,0.801,0.702,0.781
		C280.907,422.869,281.517,422.297,281.834,422.009z M272.801,440.707c-0.219-0.663-0.354-1.707-1.554-1.591
		c-1.141,0.11-1.246,1.132-1.229,1.981c0.018,0.914,0.32,1.795,1.558,1.649C272.699,442.612,273.006,441.902,272.801,440.707z
		 M271.772,426.557c-1.492,0.285-1.7,1.402-1.744,2.457c-0.011,0.254,0.435,1.236,1.398,0.748c1.018-0.516,2.004-1.049,1.723-2.335
		C273.054,426.995,272.497,426.24,271.772,426.557z"/>
	<path fill="#5D792C" d="M360.325,111.854c1.31,1.88,3.536,0.437,4.6,2.605c-1.736,2.467-4.289,4.345-6.684,6.326
		c-24.219,20.031-52.109,32.245-82.699,38.64c-9.361,1.957-18.804,3.361-28.34,4.246c-3.53,0.327-4.805-1.084-5.532-4.228
		c-3.47-15.014-7.113-29.989-12.698-44.396c-1.016-2.621,0.437-4.34,1.714-6.215c10.585-15.537,22.922-29.541,37.149-41.82
		c29.954-25.853,64.46-42.401,103.237-50.145c5.742-1.147,11.365-3.42,17.34-1.187c0.954,0.356,1.743,0.028,1.72-1.231
		c-0.033-1.774,1.436-1.619,2.372-1.495c3.961,0.522,7.641-0.962,11.463-1.374c3.852-0.415,7.714-0.759,11.578-1.033
		c4.267-0.303,4.835,0.258,3.962,4.586c-3.978,19.733-10.176,38.615-20.784,55.938c-2.232,3.646-4.626,7.385-6.203,11.332
		c-1.543,3.862-6.349,4.387-7.252,9.172c-0.639,3.388-4.269,6.283-6.763,9.23c-2.649,3.13-5.482,6.11-8.329,9.065
		c-3.496,3.629-3.531,3.574-8.186,1.324C361.727,111.067,361.196,111.493,360.325,111.854z M291.502,109.67
		c2.09,5.131,2.359,5.164,5.93,0.926C295.448,110.286,293.58,109.994,291.502,109.67z M381.278,89.409
		c-1.543-3.36-4.083-3.645-6.043-4.771C376.826,86.283,377.994,88.389,381.278,89.409z M312.237,50.481
		c-1.596,1.988-3.715,3.464-6.18,4.746C310.058,55.903,310.488,52.339,312.237,50.481z M368.469,95.592
		c-0.985-0.947-2.004-1.831-3.512-1.754c-1.153,0.059-1.704,0.912-1.452,1.811c0.401,1.428,1.439,2.279,3.092,1.792
		C367.52,97.17,368.041,96.472,368.469,95.592z M362.092,53.038c-1.187-0.09-1.711,0.802-1.956,1.566
		c-0.281,0.873,0.116,1.92,1.188,2.013c0.931,0.08,1.665-0.594,1.882-1.573C363.426,54.051,363.052,53.338,362.092,53.038z
		 M309.814,91.495c-2.434-2.646-3.914-1.661-6.094,0.667C306.154,91.896,307.736,91.723,309.814,91.495z M323.649,38.044
		c-0.998-0.644-1.167-0.826-1.366-0.87c-1.464-0.322-2.483,0.487-3.431,1.419c-0.142,0.14-0.278,0.542-0.22,0.591
		c1.104,0.939,1.897-0.394,2.892-0.442C322.085,38.715,322.632,38.393,323.649,38.044z M313.287,96.221
		c-0.934-2.539-2.607-2.516-4.678-1.639C311.011,93.29,310.713,96.88,313.287,96.221z M323.423,40.896
		c1.095,0.285,1.317,0.412,1.516,0.383c1.093-0.158,1.708,1.671,2.919,0.722c0.231-0.181,0.332-0.985,0.159-1.148
		c-0.965-0.91-2.138-0.32-3.236-0.273C324.56,40.589,324.342,40.677,323.423,40.896z M400.364,25.915
		c1.455-0.066,2.187-0.849,2.355-2.271C401.544,24.005,400.455,24.412,400.364,25.915z M412.471,16.249
		c-0.112-0.8-0.733-1.033-1.381-1.209c-0.538-0.146-0.972,0.06-0.952,0.54c0.031,0.752,0.549,1.171,1.291,1.11
		C411.804,16.66,412.158,16.389,412.471,16.249z M257.912,134.535c-0.319-0.208-0.808-0.727-1.371-0.826
		c-0.393-0.069-0.429,0.497,0.02,0.886c0.317,0.275,0.575,0.713,0.936,0.82C258.073,135.587,258.283,135.275,257.912,134.535z
		 M249.571,160.669c0.264-0.664,0.068-0.973-0.531-1.015c-0.426-0.03-0.881-0.092-1.277,0.022c-0.488,0.14-0.502,0.619,0.029,0.807
		C248.352,160.681,249.005,160.62,249.571,160.669z M356.676,51.688c0.344-0.22,0.79-0.369,1.009-0.678
		c0.3-0.422,0.025-0.811-0.581-0.818c-0.555-0.006-1.393-0.303-1.383,0.67C355.724,51.14,356.339,51.412,356.676,51.688z"/>
	<path fill="#5D792C" d="M225.425,166.038c-56.708-0.674-98.296-26.645-125.45-75.888c-3.114-5.647-6.849-11.134-9.048-17.362
		c-2.274-6.442-5.094-12.692-7.313-19.151c-2.144-6.243-4.009-12.598-5.658-18.991c-1.705-6.614-3.082-13.316-4.448-20.012
		c-0.771-3.78-1.242-7.621-1.824-11.438C71.334,0.891,72.164-0.022,74.675,0c6.118,0.053,11.94,2.184,18.032,2.332
		c0.838,0.02,2.094,0.572,1.842,1.553c-0.568,2.214,0.383,2.272,1.864,1.527c3.38-1.7,6.606-0.668,9.924,0.222
		c30.194,8.096,55.251,24.51,76.065,47.502c27.728,30.63,44.617,66.938,54.79,106.629c1.521,5.935,1.293,6.058-4.921,6.26
		C229.991,166.101,227.707,166.038,225.425,166.038z M188.381,104.505c0.729-2.269,0.487-4.305,3.688-3.319
		c1.708,0.526,3.347,1.299,5.073,1.739c1.328,0.339,1.986-0.444,2.219-1.808c0.295-1.724-0.721-1.886-1.922-1.793
		c-0.891,0.069-1.904,0.127-2.623,0.576c-2.933,1.828-4.911,1.174-6.282-1.963c-0.116-0.266-1.201-0.108-2.243-0.173
		C187.048,100.205,187.715,102.355,188.381,104.505z M116.557,73.485c-1.645,0.993-3.11,1.769-4.454,2.717
		c-1.652,1.165-0.606,2.231,0.254,3.293c0.172,0.213,0.104,0.621,0.146,0.94c-0.109,0-0.287,0.04-0.314-0.007
		c-0.11-0.189-0.233-0.403-0.244-0.613C111.783,76.575,116.22,76.873,116.557,73.485z M128.276,84.561
		c-0.245-0.923-0.77-1.677-1.782-1.536c-1.276,0.178-2.803,0.646-3.097,1.894c-0.28,1.188,1.007,1.833,2.195,1.914
		C127.172,86.94,128.031,86.081,128.276,84.561z M182.199,83.49c-0.442-0.058-0.659-0.125-0.869-0.107
		c-1.116,0.096-2.181,0.397-2.827,1.369c-0.135,0.203,0.21,1.068,0.429,1.108c1.35,0.247,1.799-0.927,2.47-1.745
		C181.535,83.951,181.739,83.845,182.199,83.49z M181.765,80.826c2.18,0,3.687,0,5.724,0
		C185.58,79.377,184.227,78.292,181.765,80.826z M129.728,100.533c-1.13,0.056-1.909,0.369-1.784,1.515
		c0.059,0.539,0.498,0.705,1.016,0.51c0.787-0.297,1.886-0.403,2.01-1.345C131.057,100.553,130.123,100.588,129.728,100.533z
		 M130.243,45.736c0.742-0.079,1.318-0.364,1.33-1.116c0.018-1.186-0.652-2.047-1.764-2.243c-0.348-0.061-1.141,0.733-1.235,1.229
		C128.341,44.833,129.113,45.514,130.243,45.736z M134.923,41.242c0.291-0.246,0.76-0.446,0.838-0.747
		c0.207-0.794-0.255-1.163-0.994-0.87c-0.318,0.126-0.647,0.593-0.679,0.933C134.069,40.757,134.624,41.011,134.923,41.242z"/>
	<path fill="#FFFFFF" d="M190.708,446.939c5.636-0.056,7.021,4.448,9.529,7.207c1.102,1.212-0.743,3.629-2.787,3.747
		c-5.057,0.293-9.21,3.716-15.65,3.897c6.45-2.37,8.85-7.423,13.345-10.929c-2.876-1.769-4.604-3.822-6.793,0.432
		c-4.267,8.292-12.167,10.436-20.77,10.592c-7.482,0.136-14.968,0.028-22.165,0.028c-1.035,3.279,2.124,5.386,1.107,8.206
		c-1.744,0.223-2.771-0.847-3.2-2.044c-1.246-3.479-2.583-6.152-6.922-7.183c-3.196-0.759-2.838-4.76-2.843-7.738
		c-0.021-12.997-0.053-25.994-0.052-38.991c0.007-51.763,0.025-103.527,0.038-155.29c0.003-10.933-0.063-21.866,0.026-32.798
		c0.059-7.242,1.699-8.869,8.832-8.92c9.767-0.069,19.534-0.017,29.346-0.017c-0.861-6.626-4.644-11.062-10.005-12.059
		c4.28-3.423,8.232-2.798,9.701,1.939c1.134,3.657,4.698,6.131,4.647,10.235c-0.017,1.371,1.155,1.251,1.874,1.548
		c11.383,4.719,14.425,14.652,15.212,25.457c0.657,9.014,0.012,18.116,0.329,27.165c0.245,6.978-0.534,13.933,0.81,20.991
		c0.644,3.383-0.913,7.469-0.909,11.33c0.047,41.247,0.003,82.494,0.052,123.742C193.469,433.908,193.092,440.237,190.708,446.939z"
		/>
	<path fill="#FFFFFF" d="M214.567,468.971c-3.803-9.875-7.71-19.548-12.504-28.847c-0.389-0.755-0.471-1.417-0.304-2.127
		c0.033-0.138,0.839-0.18,1.268-0.121c0.842,0.117,0.796,0.669,0.749,1.411c-0.195,3.105,1.612,5.51,3.024,8.033
		C210.616,454.14,212.01,461.831,214.567,468.971z"/>
	<path fill="#FFFFFF" d="M198.88,477.17c-1.085-0.256-0.989-1.023-1.059-1.676c-0.075-0.702-0.889-1.647,0.762-1.75
		c1.115-0.07,2.191-0.619,3.308-0.829c0.881-0.166,1.838-0.337,2.692-0.165c2.287,0.46,1.84-5.799,4.357-2.252
		c1.178,1.661-3.613,0.428-4.888,2.859C203.149,475.08,201.134,476.797,198.88,477.17z"/>
	<path fill="#FFFFFF" d="M197.599,487.618c-0.412-5.682-0.412-5.682,8.177-7.279C203.703,482.993,199.823,483.439,197.599,487.618z"
		/>
	<path fill="#FFFFFF" d="M211.25,205.029c-0.066-0.773-0.119-0.996-0.098-1.213c0.127-1.343-0.865-3.373,1.485-3.515
		c2.006-0.121,2.168,1.447,2.302,3.182c0.184,2.38-0.909,4.423-2.769,4.527C210.199,208.12,210.427,206.012,211.25,205.029z"/>
	<path fill="#FFFFFF" d="M191.472,192.935c-2.872,0.386-3.201,5.824-7.31,2.96C186.154,193.849,188.896,193.367,191.472,192.935z"/>
	<path fill="#FFFFFF" d="M202.954,352.295c-1.624-2.618-2.696-4.339-3.077-6.69C202.728,347.145,202.728,347.145,202.954,352.295z"
		/>
	<path fill="#FFFFFF" d="M216.578,232.062c-1.302-0.357-1.853-1.379-1.971-2.432c-0.181-1.613,1.083-2.291,2.406-2.583
		c0.713-0.157,1.323,0.59,1.26,1.195C218.124,229.666,218.17,231.28,216.578,232.062z"/>
	<path fill="#FFFFFF" d="M87.426,473.361c-1.298,2.179-0.882,4.506-3.315,4.489c-0.45-0.003-1.3-0.902-1.272-1.344
		C82.978,474.304,84.709,473.889,87.426,473.361z"/>
	<path fill="#FFFFFF" d="M99.431,344.896c1.708,1.487,3.395,2.915,1.812,5.53C99.306,349.019,99.547,346.929,99.431,344.896z"/>
	<path fill="#FFFFFF" d="M221.931,440.993c-1.367,0.189-2.99,2.576-3.927-0.516c-0.147-0.486-1.273-0.927-0.107-1.415
		C219.547,438.373,220.906,438.786,221.931,440.993z"/>
	<path fill="#FFFFFF" d="M105.533,430.876c-0.232,0.458-0.559,0.47-1.01,0.068c-0.801-0.714-2.243-0.147-2.763-1.317
		c-0.118-0.267,0.202-1.043,0.438-1.1c1.541-0.376,2.27,0.947,3.244,1.736C105.56,430.358,105.507,430.666,105.533,430.876z"/>
	<path fill="#FFFFFF" d="M210.349,234.565c-0.452,1.03-0.95,2.04-2.259,2.078c-0.116,0.003-0.484-0.922-0.343-1.092
		c0.63-0.76,0.52-2.387,2.123-2.035C210.097,233.566,210.196,234.203,210.349,234.565z"/>
	<path fill="#FFFFFF" d="M100.335,185.981c0.574,0.474,1.302,0.937,1.832,1.566c0.303,0.36-0.062,0.748-0.62,0.692
		c-0.992-0.099-1.449-0.839-1.715-1.654C99.652,186.028,99.896,185.779,100.335,185.981z"/>
	<path fill="#FFFFFF" d="M110.236,295.251c-0.135,0.323-0.184,1.119-1.061,0.97c-0.632-0.107-1.221-0.451-1.165-1.232
		c0.054-0.751,0.622-1.149,1.285-1.134C109.913,293.869,110.627,294.064,110.236,295.251z"/>
	<path fill="#FFFFFF" d="M105.595,219.88c0.177,1.482-0.187,2.39-1.661,2.446c-0.881,0.033-1.939,0.144-2.185-0.946
		c-0.359-1.592,1.154-1.616,2.067-2.096C104.728,218.806,105.522,218.683,105.595,219.88z"/>
	<path fill="#FFFFFF" d="M221.007,265.456c0.77,0.293,0.811,0.949,0.706,1.598c-0.114,0.705-0.502,1.314-1.307,1.016
		c-0.254-0.094-0.355-0.785-0.4-1.215C219.931,266.134,220.162,265.553,221.007,265.456z"/>
	<path fill="#FFFFFF" d="M136.922,207.242c-0.402-0.256-1.47,0.224-1.182-0.781c0.127-0.444,0.978-0.773,1.563-0.949
		c0.219-0.066,0.825,0.406,0.89,0.711C138.399,207.197,137.622,207.194,136.922,207.242z"/>
	<path fill="#FFFFFF" d="M202.145,252.491c0.269-0.233,0.566-0.686,0.8-0.656c0.698,0.09,1.104,0.636,0.957,1.325
		c-0.039,0.181-0.78,0.401-1.078,0.287C202.522,253.331,202.366,252.827,202.145,252.491z"/>
	<path fill="#FFFFFF" d="M285.892,464.495c0.785-0.019,1.874,0.852,1.641,0.856c-4.275,0.079-5.75,4.058-8.674,5.914
		c-0.328,0.208-0.83,0.144-1.723,0.275c0.585-3.74,2.92-6.48,4.572-9.441c0.999-1.79,2.149-0.739,2.733,0.764
		c-0.664,0.721-0.949,1.606-0.142,2.26C284.797,465.527,285.48,465.038,285.892,464.495z"/>
	<path fill="#FFFFFF" d="M280.938,280.373c-2.454-2.296,1.174-7.903-3.172-8.383c0.236,0.1,2.741-1.752,3.157-0.278
		C281.688,274.421,284.098,277.545,280.938,280.373z"/>
	<path fill="#FFFFFF" d="M276.571,453.294c-1.719-0.451-3.085-0.6-4.256-1.158c-3.118-1.485-3.302-4.277-0.467-6.291
		c1.278-0.908,2.788-1.08,3.017,0.842C275.112,448.77,276.958,450.264,276.571,453.294z"/>
	<path fill="#FFFFFF" d="M341.945,478.146c-2.651-0.841-2.665-3.101-2.819-5.285C340.066,474.623,341.005,476.385,341.945,478.146z"
		/>
	<path fill="#FFFFFF" d="M307.15,463.447c-2.793-1.002-3.514-3.107-2.997-5.795c0.051-0.263,0.778-0.679,0.993-0.583
		c2.699,1.21,1.77,3.692,1.945,5.789c0.018,0.22-0.019,0.444-0.031,0.667L307.15,463.447z"/>
	<path fill="#FFFFFF" d="M281.834,422.009c-0.317,0.288-0.927,0.86-1.582,1.373c-0.027,0.021-0.709-0.515-0.702-0.781
		c0.032-1.101,0.9-1.334,1.799-1.513C281.964,420.968,282.168,421.087,281.834,422.009z"/>
	<path fill="#FFFFFF" d="M272.801,440.707c0.205,1.195-0.102,1.906-1.225,2.038c-1.238,0.146-1.539-0.735-1.558-1.649
		c-0.017-0.849,0.088-1.871,1.229-1.981C272.447,439,272.582,440.044,272.801,440.707z"/>
	<path fill="#FFFFFF" d="M271.772,426.557c0.724-0.316,1.282,0.438,1.376,0.87c0.281,1.286-0.705,1.819-1.723,2.335
		c-0.963,0.488-1.409-0.494-1.398-0.748C270.073,427.959,270.281,426.842,271.772,426.557z"/>
	<path fill="#FFFFFF" d="M291.502,109.67c2.078,0.325,3.946,0.616,5.93,0.926C293.861,114.834,293.592,114.8,291.502,109.67z"/>
	<path fill="#FFFFFF" d="M381.278,89.409c-3.284-1.02-4.451-3.127-6.043-4.771C377.195,85.764,379.735,86.049,381.278,89.409z"/>
	<path fill="#FFFFFF" d="M312.237,50.481c-1.749,1.858-2.179,5.422-6.18,4.746C308.522,53.945,310.64,52.469,312.237,50.481z"/>
	<path fill="#FFFFFF" d="M368.469,95.592c-0.428,0.881-0.949,1.578-1.872,1.85c-1.653,0.486-2.691-0.365-3.092-1.792
		c-0.252-0.899,0.299-1.752,1.452-1.811C366.464,93.761,367.484,94.645,368.469,95.592z"/>
	<path fill="#FFFFFF" d="M362.092,53.038c0.96,0.3,1.334,1.013,1.114,2.006c-0.218,0.979-0.952,1.653-1.882,1.573
		c-1.071-0.092-1.468-1.139-1.188-2.013C360.381,53.84,360.905,52.947,362.092,53.038z"/>
	<path fill="#FFFFFF" d="M309.814,91.495c-2.078,0.228-3.66,0.401-6.094,0.667C305.9,89.835,307.38,88.849,309.814,91.495z"/>
	<path fill="#FFFFFF" d="M323.649,38.044c-1.017,0.348-1.564,0.671-2.125,0.698c-0.995,0.048-1.788,1.381-2.892,0.442
		c-0.058-0.049,0.078-0.451,0.22-0.591c0.948-0.933,1.968-1.741,3.431-1.419C322.482,37.218,322.651,37.401,323.649,38.044z"/>
	<path fill="#FFFFFF" d="M313.287,96.221c-2.574,0.659-2.276-2.932-4.678-1.639C310.68,93.705,312.354,93.682,313.287,96.221z"/>
	<path fill="#FFFFFF" d="M323.423,40.896c0.92-0.218,1.138-0.307,1.359-0.316c1.098-0.047,2.27-0.637,3.236,0.273
		c0.173,0.163,0.072,0.967-0.159,1.148c-1.211,0.949-1.826-0.88-2.919-0.722C324.74,41.307,324.518,41.18,323.423,40.896z"/>
	<path fill="#FFFFFF" d="M400.364,25.915c0.091-1.503,1.181-1.91,2.355-2.271C402.551,25.065,401.819,25.849,400.364,25.915z"/>
	<path fill="#FFFFFF" d="M412.471,16.249c-0.313,0.14-0.668,0.411-1.043,0.442c-0.742,0.061-1.26-0.358-1.291-1.11
		c-0.02-0.48,0.414-0.686,0.952-0.54C411.738,15.216,412.359,15.449,412.471,16.249z"/>
	<path fill="#FFFFFF" d="M257.912,134.535c0.371,0.739,0.161,1.052-0.415,0.881c-0.361-0.107-0.619-0.545-0.936-0.82
		c-0.449-0.389-0.413-0.955-0.02-0.886C257.104,133.809,257.593,134.327,257.912,134.535z"/>
	<path fill="#FFFFFF" d="M249.571,160.669c-0.566-0.049-1.219,0.012-1.779-0.186c-0.531-0.188-0.517-0.667-0.029-0.807
		c0.396-0.114,0.851-0.052,1.277-0.022C249.639,159.696,249.835,160.005,249.571,160.669z"/>
	<path fill="#FFFFFF" d="M356.675,51.687c-0.336-0.275-0.951-0.547-0.954-0.825c-0.01-0.973,0.828-0.676,1.383-0.67
		c0.606,0.007,0.881,0.396,0.581,0.818C357.466,51.319,357.02,51.468,356.675,51.687z"/>
	<path fill="#FFFFFF" d="M188.381,104.505c-0.667-2.15-1.333-4.3-2.09-6.74c1.042,0.064,2.127-0.093,2.243,0.173
		c1.37,3.136,3.348,3.791,6.282,1.963c0.719-0.448,1.732-0.507,2.623-0.576c1.201-0.093,2.217,0.068,1.922,1.793
		c-0.233,1.363-0.891,2.147-2.219,1.808c-1.726-0.441-3.365-1.214-5.073-1.739C188.868,100.2,189.11,102.236,188.381,104.505z"/>
	<path fill="#FFFFFF" d="M116.557,73.485c-0.337,3.389-4.774,3.09-4.612,6.33c0.011,0.21,0.134,0.423,0.244,0.613
		c0.027,0.047,0.205,0.007,0.314,0.007c-0.042-0.318,0.027-0.727-0.146-0.94c-0.86-1.062-1.907-2.129-0.254-3.293
		C113.447,75.254,114.912,74.478,116.557,73.485z"/>
	<path fill="#FFFFFF" d="M128.278,84.56c-0.247,1.521-1.107,2.381-2.685,2.273c-1.188-0.081-2.475-0.726-2.195-1.914
		c0.294-1.249,1.821-1.717,3.097-1.894C127.506,82.883,128.031,83.638,128.278,84.56z"/>
	<path fill="#FFFFFF" d="M182.199,83.49c-0.46,0.355-0.664,0.462-0.798,0.625c-0.671,0.818-1.12,1.992-2.47,1.745
		c-0.219-0.04-0.564-0.905-0.429-1.108c0.647-0.971,1.711-1.272,2.827-1.369C181.54,83.365,181.757,83.432,182.199,83.49z"/>
	<path fill="#FFFFFF" d="M181.765,80.826c2.462-2.534,3.816-1.449,5.724,0C185.451,80.826,183.944,80.826,181.765,80.826z"/>
	<path fill="#FFFFFF" d="M129.728,100.533c0.395,0.055,1.33,0.02,1.242,0.68c-0.125,0.943-1.223,1.048-2.01,1.345
		c-0.518,0.195-0.956,0.029-1.016-0.51C127.818,100.902,128.597,100.589,129.728,100.533z"/>
	<path fill="#FFFFFF" d="M130.243,45.736c-1.129-0.222-1.902-0.903-1.669-2.13c0.094-0.496,0.887-1.29,1.235-1.229
		c1.111,0.196,1.781,1.057,1.764,2.243C131.561,45.372,130.985,45.656,130.243,45.736z"/>
	<path fill="#FFFFFF" d="M134.922,41.242c-0.298-0.23-0.853-0.484-0.834-0.684c0.032-0.34,0.361-0.807,0.679-0.933
		c0.739-0.292,1.201,0.076,0.994,0.87C135.683,40.796,135.214,40.996,134.922,41.242z"/>
	<path fill="#5D792C" d="M285.892,464.495c-0.412,0.543-1.095,1.032-1.593,0.628c-0.807-0.654-0.522-1.539,0.142-2.26
		C284.924,463.407,285.408,463.951,285.892,464.495z"/>
</g>
</svg>
