<svg id="Layer_1" data-name="Layer 1" xmlns="http://www.w3.org/2000/svg" viewBox="0 0 405.55 222.42">
  <defs>
    <style>
      .cls-1 {
        fill: #009f99;
      }

      .cls-2 {
        fill: #7b7b7b;
      }
    </style>
  </defs>
  <title>foodadvisrtxt</title>
  <path class="cls-1" d="M80.21,343.63l-5.3,14.54H47.34L87.69,257.63h20.24l39.94,100.54H120l-4.89-14.54Zm7.06-20.38h21.06L98,288.88H97.6Z" transform="translate(-47.34 -138.33)"/>
  <path class="cls-1" d="M222.19,358.17H200.72V350h-.27c-1.9,3.12-7.34,10.6-22.55,10.6-22.82,0-37.77-17.66-37.77-40.35,0-25.54,18.2-40.08,37.36-40.08,13.31,0,19.7,6.52,22.14,9V257.63h22.55Zm-40.62-18.61c14.13,0,19.29-11.55,19.29-19.43,0-9.1-6.52-18.88-19-18.88-13,0-19.16,10.19-19.16,18.88C162.68,331.81,171,339.56,181.56,339.56Z" transform="translate(-47.34 -138.33)"/>
  <path class="cls-1" d="M273.13,358.17h-21.6l-27-75.4h23.37l14.4,47h.27l14.4-47h23.37Z" transform="translate(-47.34 -138.33)"/>
  <path class="cls-1" d="M327.88,358.17H305.33v-75.4h22.55Z" transform="translate(-47.34 -138.33)"/>
  <path class="cls-1" d="M368.1,304c-.14-1.63-.41-5.71-7.06-5.71-4.76,0-6.39,3-6.39,5,0,4.08,5.57,6.39,11.55,8.15,12.77,3.53,26.36,7.34,26.36,23.64,0,15.9-14,25.68-30.7,25.68-11.41,0-28.67-5.16-30.7-25h22.42c1,6.93,7.61,6.93,8.56,6.93,3.8,0,7.88-2.17,7.88-5.84,0-5.84-5.57-6.52-20-12.09-9.78-3.12-17.93-9.51-17.93-19.7,0-14.94,13.59-24.86,29.21-24.86,9.92,0,27,3.94,28.94,23.78Z" transform="translate(-47.34 -138.33)"/>
  <path class="cls-1" d="M328.08,265.71a11.48,11.48,0,0,1-23,0c0-6.34,5.14-10.22,11.48-10.22S328.08,259.37,328.08,265.71Z" transform="translate(-47.34 -138.33)"/>
  <path class="cls-1" d="M441.56,281.57h-5l-.66,0v0c-10.44,0-17,2.36-18.88,6h-.27v-4.84H395.54v75.4h22.55v-36c0-11.41,7.34-18.46,17.8-18.73v0c.22,0,.44,0,.66,0h5a11.33,11.33,0,0,0,11.33-11.33C452.89,285.85,447.82,281.57,441.56,281.57Z" transform="translate(-47.34 -138.33)"/>
  <path class="cls-2" d="M146.52,138.33h54.89v22.55h-30.3V178h29.21v22.55H171.11v38.31H146.52Z" transform="translate(-47.34 -138.33)"/>
  <path class="cls-2" d="M243.25,161c27.44,0,40.62,21.6,40.62,40.08s-13.18,40.08-40.62,40.08-40.62-21.6-40.62-40.08S215.81,161,243.25,161Zm0,59.1c9.78,0,18.07-8,18.07-19s-8.29-19-18.07-19-18.07,8-18.07,19S233.47,220.11,243.25,220.11Z" transform="translate(-47.34 -138.33)"/>
  <path class="cls-2" d="M325.58,161c27.44,0,40.62,21.6,40.62,40.08S353,241.17,325.58,241.17,285,219.57,285,201.09,298.14,161,325.58,161Zm0,59.1c9.78,0,18.07-8,18.07-19s-8.29-19-18.07-19-18.07,8-18.07,19S315.8,220.11,325.58,220.11Z" transform="translate(-47.34 -138.33)"/>
  <path class="cls-2" d="M449.35,238.86H427.88v-8.15h-.27c-1.9,3.12-7.34,10.6-22.55,10.6-22.82,0-37.77-17.66-37.77-40.35,0-25.54,18.2-40.08,37.36-40.08,13.31,0,19.7,6.52,22.14,9V138.33h22.55Zm-40.62-18.61c14.13,0,19.29-11.55,19.29-19.43,0-9.1-6.52-18.88-19-18.88-13,0-19.16,10.19-19.16,18.88C389.84,212.5,398.13,220.25,408.73,220.25Z" transform="translate(-47.34 -138.33)"/>
</svg>
