<svg id="Layer_1" data-name="Layer 1" xmlns="http://www.w3.org/2000/svg" viewBox="0 0 313.88 499.64">
  <title>thumb</title>
  <style>
    .advisr-thumb{
      fill:#c0c0c0;
    }
  </style>
  <g>
    <path id="thumby" class="advisr-thumb" d="M31.92,408.24H96.85a120,120,0,0,0,0-240.08H31.92a31.49,31.49,0,0,0,0,63H96.85a57.07,57.07,0,1,1,0,114.13H31.92a31.49,31.49,0,0,0,0,63Z" transform="translate(-0.43 -0.36)"/>
    <path class="advisr-thumb" d="M31.92,319.68H98.83a31.48,31.48,0,0,0,0-63H31.92a31.48,31.48,0,1,0,0,63Z" transform="translate(-0.43 -0.36)"/>
    <path class="advisr-thumb" d="M33.77,500H102.5c116.79,0,211.81-95,211.81-211.8S219.3,76.39,102.5,76.39c-10.06,0-21.64,0-35.41.08h-.68V33a32.65,32.65,0,0,0-65.3,0v76.32A32.75,32.75,0,0,0,33.42,142H34c26.08-.18,49.13-.26,68.51-.26,80.78,0,145.15,65.72,145.15,146.51S183.29,434.69,102.5,434.69H33.77a32.65,32.65,0,0,0,0,65.31Z" transform="translate(-0.43 -0.36)"/>
  </g>
</svg>
