<?xml version="1.0" encoding="UTF-8"?>
<svg xmlns="http://www.w3.org/2000/svg" xmlns:xlink="http://www.w3.org/1999/xlink" version="1.1" x="0px" y="0px" viewBox="0 0 100 125" style="color:white;" xml:space="preserve">
  <rect style="fill:#ffffff;" x="33" y="34" width="2" height="32" />
  <rect style="fill:#ffffff;" x="37" y="34" width="2" height="32" />
  <rect style="fill:#ffffff;" x="43" y="34" width="2" height="32" />
  <rect style="fill:#ffffff;" x="51" y="34" width="2" height="32" />
  <rect style="fill:#ffffff;" x="65" y="34" width="2" height="32" />
  <rect style="fill:#ffffff;" x="55" y="34" width="2" height="32" />
  <rect style="fill:#ffffff;" x="59" y="34" width="2" height="32" />
  <polygon style="fill:#ffffff;" points="38,72 27,72 27,61 29,61 29,70 38,70 " />
  <polygon style="fill:#ffffff;" points="73,61 73,72 62,72 62,70 71,70 71,61 " />
  <polygon style="fill:#ffffff;" points="27,39 27,28 38,28 38,30 29,30 29,39 " />
  <polygon style="fill:#ffffff;" points="62,28 73,28 73,39 71,39 71,30 62,30 " />
</svg>
