<?xml version="1.0" encoding="utf-8"?>
<!-- Generator: Adobe Illustrator 17.0.2, SVG Export Plug-In . SVG Version: 6.00 Build 0)  -->
<!DOCTYPE svg PUBLIC "-//W3C//DTD SVG 1.1//EN" "http://www.w3.org/Graphics/SVG/1.1/DTD/svg11.dtd">
<svg version="1.1" id="Layer_1" xmlns="http://www.w3.org/2000/svg" xmlns:xlink="http://www.w3.org/1999/xlink" x="0px" y="0px"
	 width="570px" height="120px" viewBox="0 0 570 120" enable-background="new 0 0 570 120" xml:space="preserve">
<g>
	<path fill="#7A7A79" d="M1.273,45.422h37.206V60.71H17.942v11.604h19.8v15.288h-19.8v25.971H1.273V45.422z"/>
	<path fill="#7A7A79" d="M66.844,60.802c18.603,0,27.536,14.643,27.536,27.168c0,12.525-8.933,27.168-27.536,27.168
		S39.308,100.494,39.308,87.97C39.308,75.445,48.241,60.802,66.844,60.802z M66.844,100.863c6.631,0,12.249-5.434,12.249-12.893
		c0-7.46-5.618-12.893-12.249-12.893c-6.631,0-12.249,5.434-12.249,12.893C54.596,95.429,60.214,100.863,66.844,100.863z"/>
	<path fill="#7A7A79" d="M122.652,60.802c18.603,0,27.536,14.643,27.536,27.168c0,12.525-8.933,27.168-27.536,27.168
		S95.116,100.494,95.116,87.97C95.116,75.445,104.05,60.802,122.652,60.802z M122.652,100.863c6.631,0,12.249-5.434,12.249-12.893
		c0-7.46-5.618-12.893-12.249-12.893c-6.631,0-12.249,5.434-12.249,12.893C110.404,95.429,116.022,100.863,122.652,100.863z"/>
	<path fill="#7A7A79" d="M206.549,113.572h-14.551v-5.526h-0.184c-1.289,2.118-4.973,7.184-15.288,7.184
		c-15.471,0-25.602-11.972-25.602-27.352c0-17.314,12.341-27.168,25.325-27.168c9.025,0,13.353,4.42,15.011,6.078V45.422h15.288
		L206.549,113.572L206.549,113.572z M179.014,100.955c9.577,0,13.078-7.828,13.078-13.17c0-6.17-4.42-12.801-12.893-12.801
		c-8.841,0-12.985,6.907-12.985,12.801C166.213,95.705,171.83,100.955,179.014,100.955z"/>
	<path fill="#00B2A9" d="M231.925,103.706l-3.6,9.875h-18.735l27.411-68.297h13.752l27.135,68.297h-18.92l-3.322-9.875H231.925z
		 M236.724,89.862h14.305l-7.014-23.35h-0.092h-0.184L236.724,89.862z"/>
	<path fill="#00B2A9" d="M328.371,113.581h-14.582v-5.538h-0.184c-1.292,2.123-4.984,7.199-15.321,7.199
		c-15.505,0-25.657-11.998-25.657-27.411c0-17.351,12.368-27.227,25.381-27.227c9.045,0,13.383,4.431,15.044,6.091V45.283h15.321
		V113.581z M300.775,100.937c9.599,0,13.105-7.845,13.105-13.198c0-6.183-4.431-12.829-12.921-12.829
		c-8.86,0-13.013,6.922-13.013,12.829C287.947,95.677,293.577,100.937,300.775,100.937z"/>
	<path fill="#00B2A9" d="M362.981,113.581h-14.675L329.94,62.359h15.874l9.783,31.934h0.184l9.783-31.934h15.874L362.981,113.581z"
		/>
	<path fill="#00B2A9" d="M400.177,113.581h-15.321V62.359h15.321V113.581z"/>
	<path fill="#00B2A9" d="M427.495,76.757c-0.092-1.107-0.277-3.876-4.799-3.876c-3.231,0-4.338,2.03-4.338,3.415
		c0,2.769,3.784,4.337,7.845,5.538c8.676,2.399,17.905,4.984,17.905,16.059c0,10.798-9.506,17.444-20.858,17.444
		c-7.753,0-19.474-3.508-20.858-16.983h15.228c0.646,4.707,5.168,4.707,5.815,4.707c2.585,0,5.354-1.477,5.354-3.969
		c0-3.969-3.784-4.431-13.567-8.214c-6.645-2.123-12.182-6.461-12.182-13.383c0-10.152,9.23-16.889,19.843-16.889
		c6.738,0,18.367,2.677,19.658,16.152L427.495,76.757L427.495,76.757z"/>
	<circle fill="#00B2A9" cx="392.516" cy="50.769" r="7.796"/>
	<path fill="#00B2A9" d="M477.4,61.547h-3.402c-0.151,0-0.299,0.012-0.448,0.019v-0.019c-7.09,0-11.537,1.606-12.829,4.098h-0.184
		v-3.286h-14.398v51.223h15.321V89.124c0-7.753,4.984-12.54,12.09-12.724v-0.023c0.149,0.008,0.297,0.023,0.448,0.023h3.402
		c4.25,0,7.695-3.445,7.695-7.696C485.094,64.452,481.649,61.547,477.4,61.547z"/>
	<g>
		<path fill="#00B2A9" d="M501.801,97.457h15.388c15.688,0,28.448-12.761,28.448-28.448c0-15.688-12.76-28.449-28.448-28.449
			h-15.388c-4.122,0-7.462,3.341-7.462,7.462c0,4.122,3.341,7.462,7.462,7.462h15.388c7.458,0,13.527,6.067,13.527,13.525
			c0,7.457-6.069,13.524-13.527,13.524h-15.388c-4.122,0-7.462,3.341-7.462,7.462C494.34,94.115,497.68,97.457,501.801,97.457z"/>
		<path fill="#00B2A9" d="M501.801,76.47h15.857c4.12,0,7.46-3.34,7.46-7.46c0-4.123-3.34-7.462-7.46-7.462h-15.857
			c-4.122,0-7.462,3.34-7.462,7.462C494.34,73.13,497.68,76.47,501.801,76.47z"/>
		<path fill="#00B2A9" d="M502.239,119.204h16.29c27.68,0,50.198-22.518,50.198-50.194c0-27.679-22.519-50.196-50.198-50.196
			c-2.384,0-5.129,0.006-8.392,0.019l-0.161,0.001V8.531c0-4.265-3.472-7.735-7.739-7.735c-4.266,0-7.737,3.47-7.737,7.735v18.086
			c0,4.222,3.436,7.692,7.658,7.735l0.135-0.001c6.181-0.041,11.644-0.063,16.236-0.063c19.146,0,34.399,15.576,34.399,34.721
			c0,19.144-15.254,34.718-34.399,34.718h-16.29c-4.267,0-7.738,3.472-7.738,7.738S497.972,119.204,502.239,119.204z"/>
	</g>
</g>
</svg>
