<?xml version="1.0" encoding="utf-8"?>
<!-- Generator: Adobe Illustrator 21.1.0, SVG Export Plug-In . SVG Version: 6.00 Build 0)  -->
<svg version="1.1" id="Layer_1" xmlns="http://www.w3.org/2000/svg" xmlns:xlink="http://www.w3.org/1999/xlink" x="0px" y="0px"
	 viewBox="0 0 283.5 283.5" style="enable-background:new 0 0 283.5 283.5;" xml:space="preserve">
<style type="text/css">
	.st0{fill:#7C7C7B;}
	.st1{fill:none;stroke:#00A6AA;stroke-width:33;stroke-linecap:round;stroke-linejoin:round;stroke-miterlimit:10;}
</style>
<g>
	<g>
		<path class="st0" d="M131.3,192.5l-3.2-80.4h29.7l-3.2,80.4H131.3z M158.6,218c0,4.2-1.4,7.8-4.3,10.7c-2.9,2.9-6.5,4.3-10.7,4.3
			c-4.2,0-7.8-1.4-10.7-4.3c-2.9-2.9-4.3-6.5-4.3-10.7c0-4.2,1.4-7.8,4.3-10.7c2.9-2.9,6.5-4.3,10.7-4.3c4.2,0,7.8,1.4,10.7,4.3
			C157.1,210.2,158.6,213.8,158.6,218z"/>
	</g>
</g>
<polygon class="st1" points="142.2,17.8 19.4,265.4 265.1,265.4 "/>
</svg>
