<svg id="Layer_1" data-name="Layer 1" xmlns="http://www.w3.org/2000/svg" viewBox="0 0 632.54 334.39">
  <defs>
    <style>
      .cls-1 {
        fill: #00B2A9;
      }

      .cls-2 {
        fill: #7a7a7a;
      }
    </style>
  </defs>
  <title>FOODADVISR_STACK_RGB</title>
  <g>
    <path class="cls-1" d="M141.21,424.63l-5.3,14.54H108.34l40.35-100.54h20.24l39.94,100.54H181l-4.89-14.54Zm7.06-20.38h21.06L159,369.88h-.41Z" transform="translate(-108.34 -107.36)"/>
    <path class="cls-1" d="M283.19,439.17H261.72V431h-.27c-1.9,3.12-7.34,10.6-22.55,10.6-22.82,0-37.77-17.66-37.77-40.35,0-25.54,18.2-40.08,37.36-40.08,13.31,0,19.7,6.52,22.14,9V338.63h22.55Zm-40.62-18.61c14.13,0,19.29-11.55,19.29-19.43,0-9.1-6.52-18.88-19-18.88-13,0-19.16,10.19-19.16,18.88C223.68,412.81,232,420.56,242.56,420.56Z" transform="translate(-108.34 -107.36)"/>
    <path class="cls-1" d="M334.13,439.17h-21.6l-27-75.4h23.37l14.4,47h.27l14.4-47h23.37Z" transform="translate(-108.34 -107.36)"/>
    <path class="cls-1" d="M388.88,439.17H366.33v-75.4h22.55Z" transform="translate(-108.34 -107.36)"/>
    <path class="cls-1" d="M429.1,385c-.14-1.63-.41-5.71-7.06-5.71-4.76,0-6.39,3-6.39,5,0,4.08,5.57,6.39,11.55,8.15,12.77,3.53,26.36,7.34,26.36,23.64,0,15.9-14,25.68-30.7,25.68-11.41,0-28.67-5.16-30.7-25h22.42c1,6.93,7.61,6.93,8.56,6.93,3.8,0,7.88-2.17,7.88-5.84,0-5.84-5.57-6.52-20-12.09-9.78-3.12-17.93-9.51-17.93-19.7,0-14.94,13.59-24.86,29.21-24.86,9.92,0,27,3.94,28.94,23.78Z" transform="translate(-108.34 -107.36)"/>
    <path class="cls-1" d="M389.08,346.71a11.48,11.48,0,0,1-23,0c0-6.34,5.14-10.22,11.48-10.22S389.08,340.37,389.08,346.71Z" transform="translate(-108.34 -107.36)"/>
    <path class="cls-1" d="M502.56,362.57h-5l-.66,0v0c-10.44,0-17,2.36-18.88,6h-.27v-4.84H456.54v75.4h22.55v-36c0-11.41,7.34-18.46,17.8-18.73v0c.22,0,.44,0,.66,0h5a11.33,11.33,0,0,0,11.33-11.33C513.89,366.85,508.82,362.57,502.56,362.57Z" transform="translate(-108.34 -107.36)"/>
    <path class="cls-2" d="M207.52,219.33h54.89v22.55h-30.3V259h29.21v22.55H232.11v38.31H207.52Z" transform="translate(-108.34 -107.36)"/>
    <path class="cls-2" d="M304.25,242c27.44,0,40.62,21.6,40.62,40.08s-13.18,40.08-40.62,40.08-40.62-21.6-40.62-40.08S276.81,242,304.25,242Zm0,59.1c9.78,0,18.07-8,18.07-19s-8.29-19-18.07-19-18.07,8-18.07,19S294.47,301.11,304.25,301.11Z" transform="translate(-108.34 -107.36)"/>
    <path class="cls-2" d="M386.58,242c27.44,0,40.62,21.6,40.62,40.08S414,322.17,386.58,322.17,346,300.57,346,282.09,359.14,242,386.58,242Zm0,59.1c9.78,0,18.07-8,18.07-19s-8.29-19-18.07-19-18.07,8-18.07,19S376.8,301.11,386.58,301.11Z" transform="translate(-108.34 -107.36)"/>
    <path class="cls-2" d="M510.35,319.86H488.88v-8.15h-.27c-1.9,3.12-7.34,10.6-22.55,10.6-22.82,0-37.77-17.66-37.77-40.35,0-25.54,18.2-40.08,37.36-40.08,13.31,0,19.7,6.52,22.14,9V219.33h22.55Zm-40.62-18.61c14.13,0,19.29-11.55,19.29-19.43,0-9.1-6.52-18.88-19-18.88-13,0-19.16,10.19-19.16,18.88C450.84,293.5,459.13,301.25,469.73,301.25Z" transform="translate(-108.34 -107.36)"/>
    <path class="cls-1" d="M553.34,378.23h43.12a79.72,79.72,0,0,0,0-159.44H553.34a20.91,20.91,0,0,0,0,41.82h43.12a37.9,37.9,0,1,1,0,75.8H553.34a20.91,20.91,0,0,0,0,41.82Z" transform="translate(-108.34 -107.36)"/>
    <path class="cls-1" d="M553.34,319.42h44.43a20.91,20.91,0,0,0,0-41.82H553.34a20.91,20.91,0,1,0,0,41.82Z" transform="translate(-108.34 -107.36)"/>
    <path class="cls-1" d="M554.57,439.17h45.65c77.56,0,140.66-63.1,140.66-140.66s-63.1-140.66-140.66-140.66c-6.68,0-14.37,0-23.51.05h-.45V129a21.68,21.68,0,0,0-43.36,0v50.68a21.75,21.75,0,0,0,21.46,21.67h.38c17.32-.12,32.63-.18,45.5-.18,53.65,0,96.39,43.65,96.39,97.29s-42.74,97.29-96.39,97.29H554.57a21.68,21.68,0,0,0,0,43.37Z" transform="translate(-108.34 -107.36)"/>
  </g>
</svg>
