<?xml version="1.0" encoding="utf-8"?>
<!-- Generator: Adobe Illustrator 21.1.0, SVG Export Plug-In . SVG Version: 6.00 Build 0)  -->
<svg version="1.1" id="Layer_1" xmlns="http://www.w3.org/2000/svg" xmlns:xlink="http://www.w3.org/1999/xlink" x="0px" y="0px"
	 viewBox="0 0 283.5 283.5" style="enable-background:new 0 0 283.5 283.5;" xml:space="preserve">
<style type="text/css">
	.st0{fill:none;stroke:#00B2A9;stroke-width:33;stroke-linecap:round;stroke-linejoin:round;stroke-miterlimit:10;}
	.st1{fill:none;stroke:#00B2A9;stroke-width:56;stroke-linecap:round;stroke-linejoin:round;stroke-miterlimit:10;}
	.st2{fill:#FFFFFF;}
</style>
<circle class="st0" cx="142.2" cy="141.6" r="123.8"/>
<line class="st1" x1="220.4" y1="62.9" x2="63" y2="220.3"/>
<g>
	<path class="st2" d="M66.2,203.2l2.1,2.1c-0.7-2.5,0-4.7,1.9-6.7c1-1,2.2-1.7,3.5-2c1.3-0.3,2.6-0.2,4,0.3
		c-0.4-1.4-0.5-2.7-0.1-4.1c0.3-1.3,1-2.5,2.1-3.6c1.5-1.5,3.2-2.2,5.2-2.2c1.9,0,3.8,0.9,5.6,2.7l7.8,7.8l-2.2,2.2l-7.5-7.5
		c-1.3-1.3-2.7-2-4-2.1c-1.3,0-2.6,0.5-3.7,1.6c-1.1,1.1-1.7,2.4-1.6,3.7c0,1.3,0.7,2.7,2.1,4l7.5,7.5l-2.2,2.2l-7.5-7.5
		c-1.3-1.3-2.7-2-4-2.1c-1.3,0-2.6,0.5-3.7,1.6c-1.1,1.1-1.7,2.4-1.6,3.7c0,1.3,0.7,2.7,2.1,4l7.5,7.5l-2.2,2.2L64,205.4L66.2,203.2
		z"/>
	<path class="st2" d="M100.5,191.9c-2.5-0.1-4.7-1.1-6.8-3.1s-3-4.2-3.1-6.7c0-2.4,0.8-4.6,2.6-6.4c1.1-1.1,2.4-1.8,3.7-2.2
		c1.4-0.3,2.7-0.3,4,0.2l-2.6-2.6l2.2-2.2l13.2,13.2l-2.2,2.2l-2.7-2.7c0.4,1.3,0.5,2.6,0.2,4c-0.3,1.4-1,2.6-2.1,3.8
		C105.1,191.1,103,192,100.5,191.9z M107.3,182.5c0-1.8-0.8-3.4-2.3-4.9c-1.5-1.5-3.1-2.2-4.9-2.3c-1.8,0-3.3,0.6-4.5,1.8
		c-1.2,1.2-1.8,2.7-1.9,4.4c0,1.7,0.7,3.4,2.2,4.8c1.5,1.5,3.1,2.3,5,2.3c1.8,0,3.3-0.5,4.5-1.8
		C106.7,185.8,107.3,184.3,107.3,182.5z"/>
	<path class="st2" d="M120.4,175l-18.2-7.8l2.4-2.4l14.7,6.6l-6.6-14.8l2.3-2.3l11.4,27.3l-2.3,2.3L120.4,175z"/>
	<path class="st2" d="M135.8,156.7c-2.4-0.1-4.7-1.1-6.7-3.2c-2-2-3.1-4.3-3.2-6.7s0.8-4.6,2.7-6.5c1.6-1.6,3.2-2.5,5-2.8
		c1.7-0.3,3.5,0.1,5.3,1l-2.4,2.4c-1-0.5-2.1-0.7-3.1-0.5c-1.1,0.2-2,0.7-3,1.7c-1.3,1.3-1.8,2.7-1.7,4.3c0.1,1.6,1,3.2,2.6,4.8
		c1.6,1.6,3.2,2.4,4.8,2.6c1.6,0.1,3.1-0.5,4.3-1.7c1.9-1.9,2.3-3.9,1.2-6.1l2.4-2.4c0.9,1.7,1.2,3.4,1,5.2c-0.2,1.8-1.1,3.5-2.7,5
		C140.4,155.8,138.2,156.8,135.8,156.7z"/>
	<path class="st2" d="M149.8,142.7c-2.5,0-4.7-1.1-6.7-3.1c-2-2-3.1-4.3-3-6.8c0-2.5,1-4.7,2.9-6.6c1.9-1.9,4.1-2.9,6.6-2.9
		c2.5,0,4.8,1,6.8,3c2,2,3,4.3,2.9,6.9c-0.1,2.6-1.1,4.8-3,6.7C154.4,141.8,152.2,142.7,149.8,142.7z M154.5,138.1
		c1.2-1.2,1.9-2.7,1.9-4.5c0-1.8-0.8-3.5-2.3-5c-1.6-1.6-3.2-2.4-5-2.4s-3.2,0.6-4.5,1.8c-1.2,1.2-1.8,2.7-1.8,4.4s0.9,3.4,2.4,4.9
		c1.6,1.6,3.2,2.4,4.9,2.5C151.8,139.9,153.3,139.3,154.5,138.1z"/>
	<path class="st2" d="M154.2,115.2l2.1,2.1c-0.7-2.5,0-4.7,1.9-6.7c1.5-1.5,3.2-2.2,5.1-2.2c1.9,0,3.8,0.9,5.6,2.7l7.8,7.8l-2.2,2.2
		l-7.5-7.5c-1.3-1.3-2.7-2-4-2.1c-1.3,0-2.6,0.5-3.7,1.6c-1.1,1.1-1.7,2.4-1.6,3.7c0,1.3,0.7,2.7,2.1,4l7.5,7.5l-2.2,2.2L152,117.4
		L154.2,115.2z"/>
	<path class="st2" d="M182.4,109.9l1.8-1.8l1.8,1.8l-2.2,2.2c-2.3,2.3-4.6,2.3-6.8,0l-8-8l-1.7,1.7l-1.8-1.8l1.7-1.7l-3.3-3.3
		l2.2-2.2l3.3,3.3l3.4-3.4l1.8,1.8l-3.4,3.4l8,8c0.6,0.6,1.1,0.9,1.6,0.9C181.2,110.8,181.8,110.5,182.4,109.9z"/>
	<path class="st2" d="M187.1,105.3c-2.5-0.1-4.7-1.1-6.8-3.1c-2-2-3-4.2-3.1-6.7c0-2.4,0.8-4.6,2.6-6.4c1.1-1.1,2.4-1.8,3.7-2.2
		c1.4-0.3,2.7-0.3,4,0.2l-2.6-2.6l2.2-2.2l13.2,13.2l-2.2,2.2l-2.7-2.7c0.4,1.3,0.5,2.6,0.2,4c-0.3,1.4-1,2.6-2.1,3.8
		C191.7,104.5,189.6,105.4,187.1,105.3z M193.8,95.9c0-1.8-0.8-3.4-2.3-4.9c-1.5-1.5-3.1-2.2-4.9-2.3c-1.8,0-3.3,0.6-4.5,1.8
		c-1.2,1.2-1.8,2.7-1.9,4.4c0,1.7,0.7,3.4,2.2,4.8c1.5,1.5,3.1,2.3,5,2.3c1.8,0,3.3-0.5,4.5-1.8C193.3,99.2,193.9,97.7,193.8,95.9z"
		/>
	<path class="st2" d="M189.9,74.4c0,0.6-0.2,1.1-0.6,1.5c-0.4,0.4-0.9,0.6-1.5,0.6s-1.1-0.2-1.5-0.6c-0.4-0.4-0.6-0.9-0.6-1.5
		c0-0.6,0.2-1.1,0.6-1.5s0.9-0.6,1.5-0.6c0.6,0,1.1,0.2,1.5,0.6C189.7,73.3,189.9,73.8,189.9,74.4z M203.5,92.3l-13.2-13.2l2.2-2.2
		l13.2,13.2L203.5,92.3z"/>
	<path class="st2" d="M197.8,71.6l2.1,2.1c-0.7-2.5,0-4.7,1.9-6.7c1.5-1.5,3.2-2.2,5.1-2.2c1.9,0,3.8,0.9,5.6,2.7l7.8,7.8l-2.2,2.2
		l-7.5-7.5c-1.3-1.3-2.7-2-4-2.1c-1.3,0-2.6,0.5-3.7,1.6c-1.1,1.1-1.7,2.4-1.6,3.7c0,1.3,0.7,2.7,2.1,4l7.5,7.5l-2.2,2.2l-13.2-13.2
		L197.8,71.6z"/>
</g>
</svg>
