<svg id="Layer_1" data-name="Layer 1" xmlns="http://www.w3.org/2000/svg" viewBox="0 0 501.01 501.25">
  <title>skull</title>
  <g>
    <path d="M2.58,504V2.74h501V504ZM250.89,359.51c10.38,0,20.77.21,31.14-.1a45.75,45.75,0,0,0,13.39-2.15c14.41-5,23.78-17.14,23.13-33.39-.71-17.63,3.83-31.26,15.06-46,27.85-36.5,30.33-77.77,9.32-118.45-20-38.68-53.07-59.07-97.21-57.25-41.43,1.72-71.57,23.15-89.39,59.93C137,202,139.78,242,166.49,277.34c11.43,15.13,17.68,28.84,17.06,47.82-.66,20.43,14.53,33.75,34.95,34.29C229.29,359.74,240.1,359.5,250.89,359.51ZM96.53,295.09c-17.46-16.56-34.39-17.65-46.17-3.81C37.69,306.17,43,323.93,64.7,339c-5.19,16.61-2.92,28.26,7.58,36.1,9.51,7.1,19.79,8,30.31,2.15,11.44-6.35,14.82-16.15,13.2-33.15-.31-3.27,2.77-8.11,5.72-10.22,16.75-12,33.93-23.39,50.24-34.49L145.84,261.3ZM410,126.64c11.38,10.3,23.64,14.65,37.37,5.67,10.54-6.9,14.17-17.18,11.86-29.23-3.14-16.4-15.15-22.54-30.45-24.11-.1-14.41-4.64-25.87-18.32-31.6-10.25-4.29-19.75-1.87-27.75,5.26C370.13,63.87,372.26,77.56,378.09,92l-49,33.29,26.77,37.52Zm1.39,173.1L355.24,261.5l-24.62,37.09,47.52,34.18c-8.54,24.19-2.27,41.55,16.15,46.17,17.94,4.5,30.69-6.85,35.34-31.45,18.53-2.76,27.68-9.77,30.55-24,2.48-12.29-2-22.17-12.19-29C434.88,285.76,422.84,289.4,411.42,299.73ZM94.78,120.18l53.07,38.11,27.75-36.11L128.55,87.64c8.66-24.09,3-41.12-15-46.59-17.71-5.38-30.74,6-36.27,31.6C58.66,75,50.16,81.19,46.67,94.94a28,28,0,0,0,11.72,30.48C71.64,133.92,83.58,130.11,94.78,120.18Z" transform="translate(-2.58 -2.74)" fill="#fff"/>
    <path d="M250.89,359.51c-10.8,0-21.6.23-32.39-.06-20.42-.54-35.61-13.86-34.95-34.29.62-19-5.63-32.69-17.06-47.82C139.78,242,137,202,156.33,162.13c17.83-36.78,48-58.21,89.39-59.93,44.14-1.83,77.23,18.56,97.21,57.25,21,40.67,18.53,82-9.32,118.45-11.24,14.73-15.77,28.35-15.06,46,.65,16.25-8.72,28.43-23.13,33.39A45.75,45.75,0,0,1,282,359.42C271.67,359.72,261.28,359.51,250.89,359.51Zm47.05-166.85c-10.07,4.89-20.77,7.64-28,14.2-9.75,8.81-7.39,25.49,2.38,34.55,11,10.19,40.11,10.21,51.15,0,10.27-9.47,12.27-26.34,2-35.5C318.67,199.91,308.61,197.59,297.95,192.66Zm-89.87,4.08c-21.78-.3-33,7.64-34,23.76-1,16.59,10.21,27.47,29,28,25.1.76,38.63-8.41,38.67-26.2a25.55,25.55,0,0,0-22.47-25.53C215.57,196.36,211.81,196.73,208.08,196.73Zm68.7,89.74c-7.44-11.32-13-20.46-19.4-28.93-1.37-1.8-7.82-2.61-8.83-1.36-7.07,8.71-13.33,18.08-22,30.29Z" transform="translate(-2.58 -2.74)"/>
    <path d="M96.53,295.09l49.31-33.79,25.91,38.12c-16.31,11.1-33.5,22.49-50.24,34.49-2.95,2.11-6,7-5.72,10.22,1.62,17-1.77,26.81-13.2,33.15-10.52,5.84-20.79,5-30.31-2.15-10.5-7.84-12.77-19.49-7.58-36.1-21.68-15.11-27-32.87-14.35-47.76C62.14,277.44,79.06,278.52,96.53,295.09Z" transform="translate(-2.58 -2.74)"/>
    <path d="M410,126.64l-54.17,36.15L329.1,125.26l49-33.29c-5.84-14.41-8-28.1,4.65-39.35,8-7.13,17.5-9.55,27.75-5.26,13.68,5.73,18.22,17.18,18.32,31.6,15.29,1.57,27.31,7.71,30.45,24.11,2.31,12.05-1.32,22.34-11.86,29.23C433.68,141.28,421.42,136.94,410,126.64Z" transform="translate(-2.58 -2.74)"/>
    <path d="M411.42,299.73c11.42-10.34,23.46-14,36.57-5.23,10.23,6.83,14.67,16.71,12.19,29-2.87,14.22-12,21.23-30.55,24-4.65,24.6-17.4,35.95-35.34,31.45-18.42-4.62-24.69-22-16.15-46.17l-47.52-34.18,24.62-37.09Z" transform="translate(-2.58 -2.74)"/>
    <path d="M94.78,120.18c-11.19,9.92-23.14,13.74-36.39,5.23A28,28,0,0,1,46.67,94.94c3.49-13.75,12-19.94,30.62-22.29C82.82,47,95.85,35.67,113.56,41c18,5.47,23.65,22.5,15,46.59l47.05,34.55L147.85,158.3Z" transform="translate(-2.58 -2.74)"/>
    <path d="M297.95,192.66c10.66,4.94,20.73,7.25,27.49,13.27,10.28,9.16,8.28,26-2,35.5-11,10.18-40.14,10.16-51.15,0-9.77-9.05-12.13-25.73-2.38-34.55C277.18,200.3,287.88,197.54,297.95,192.66Z" transform="translate(-2.58 -2.74)" fill="#fff"/>
    <path d="M208.08,196.73c3.73,0,7.49-.37,11.17.07a25.55,25.55,0,0,1,22.47,25.53c0,17.79-13.57,27-38.67,26.2-18.78-.57-30-11.45-29-28C175.06,204.37,186.3,196.43,208.08,196.73Z" transform="translate(-2.58 -2.74)" fill="#fff"/>
    <path d="M276.78,286.47H226.52c8.69-12.21,15-21.58,22-30.29,1-1.25,7.46-.44,8.83,1.36C263.81,266,269.34,275.15,276.78,286.47Z" transform="translate(-2.58 -2.74)" fill="#fff"/>
  </g>
</svg>
