<!DOCTYPE svg PUBLIC "-//W3C//DTD SVG 20010904//EN" "http://www.w3.org/TR/2001/REC-SVG-20010904/DTD/svg10.dtd">
<svg version="1.0" xmlns="http://www.w3.org/2000/svg" width="200px" height="200px" viewBox="0 0 2000 2000" preserveAspectRatio="xMidYMid meet">
<g id="layer1" fill="#ffffff" stroke="none">
 <path d="M265 1519 c-46 -41 -67 -82 -63 -124 2 -26 -4 -41 -24 -62 -70 -75 -64 -157 17 -218 51 -40 101 -43 149 -10 l39 26 86 -59 c59 -41 86 -66 84 -79 0 -10 -6 -47 -13 -83 -12 -70 -7 -149 16 -213 8 -22 11 -44 7 -48 -5 -3 -50 -37 -101 -73 -92 -66 -94 -67 -114 -49 -28 25 -98 24 -135 -3 -46 -34 -73 -82 -73 -131 0 -37 6 -50 41 -88 23 -25 52 -48 65 -51 12 -3 25 -16 28 -28 7 -30 87 -103 122 -112 38 -10 110 30 142 78 21 33 24 46 19 92 l-5 54 83 60 84 61 58 -35 c78 -47 123 -58 223 -58 98 1 171 24 243 79 38 29 46 32 58 20 8 -8 45 -36 84 -62 l70 -48 0 -63 c0 -62 1 -64 46 -107 41 -39 51 -43 95 -43 45 0 52 3 96 47 28 28 48 57 48 70 0 12 6 21 15 21 20 0 83 57 102 93 35 69 -21 173 -109 199 -32 9 -42 8 -79 -11 l-42 -22 -99 66 c-94 62 -100 68 -93 93 15 64 17 210 3 259 l-15 50 107 72 c103 70 109 72 131 58 45 -28 68 -29 115 -7 121 59 125 197 9 266 -24 14 -47 34 -50 45 -16 50 -89 109 -135 109 -91 0 -180 -126 -141 -198 8 -14 -5 -28 -72 -75 l-82 -58 -5 63 c-3 35 -11 72 -17 84 -21 37 -91 93 -125 99 -19 4 -104 5 -190 3 l-156 -3 -39 -31 c-63 -51 -83 -88 -83 -156 l0 -59 -100 68 c-95 64 -100 70 -95 97 7 41 -29 111 -73 141 -54 37 -111 34 -157 -6z m758 -439 c-9 -16 -20 -30 -23 -30 -3 0 -14 14 -23 30 l-18 30 41 0 41 0 -18 -30z m-125 -146 c33 -23 28 -93 -8 -112 -28 -15 -136 -10 -152 6 -6 6 -11 29 -12 52 0 31 4 46 19 56 26 19 124 18 153 -2z m373 -5 c15 -24 10 -85 -8 -100 -10 -9 -40 -14 -78 -14 -78 0 -95 13 -95 72 0 36 4 45 23 53 33 15 146 7 158 -11z"/>
 </g>

</svg>
