<svg id="Layer_1" data-name="Layer 1" xmlns="http://www.w3.org/2000/svg" viewBox="0 0 400 400"><defs><style>.cls-1{fill:#101010;}.cls-2{fill:#fff;}</style></defs><title>Artboard 1</title><rect class="cls-1" x="0.59" y="0.42" width="399.41" height="399.41" rx="28.06" ry="28.06"/><path class="cls-2" d="M38.94,336.57l4.59,4.59q-2.17-7.95,4.18-14.3a15.91,15.91,0,0,1,7.46-4.31,14,14,0,0,1,8.54.6,16.38,16.38,0,0,1-.31-8.72,16.1,16.1,0,0,1,4.44-7.69,15.31,15.31,0,0,1,11.07-4.82q6.27,0,12.05,5.76l16.77,16.77-4.64,4.64-16-16q-4.28-4.28-8.59-4.41A11.94,11.94,0,0,0,67.1,320.08q.13,4.31,4.41,8.59l16,16-4.64,4.64-16-16q-4.28-4.28-8.57-4.44a10.48,10.48,0,0,0-7.92,3.48,10.6,10.6,0,0,0-3.51,7.95q.13,4.31,4.41,8.6l16,16-4.7,4.7L34.24,341.27Z"/><path class="cls-2" d="M112.52,312.29q-8-.28-14.5-6.76T91.38,291.2a18.18,18.18,0,0,1,5.68-13.68,16.45,16.45,0,0,1,8-4.62,15.79,15.79,0,0,1,8.54.34L108,267.56l4.75-4.75L141,291.15l-4.75,4.75-5.78-5.78a15.91,15.91,0,0,1,.41,8.62,16.26,16.26,0,0,1-4.59,8.05A17.89,17.89,0,0,1,112.52,312.29Zm14.5-20q-.08-5.7-4.88-10.5t-10.5-4.88a12.86,12.86,0,0,0-9.65,3.87,13.1,13.1,0,0,0-4,9.55q0,5.6,4.78,10.4a15.36,15.36,0,0,0,10.63,5A13,13,0,0,0,127,292.26Z"/><path class="cls-2" d="M155.23,276l-39.07-16.67,5.16-5.16,31.59,14.25L138.82,236.7l4.85-4.85,24.52,58.69-4.85,4.85Z"/><path class="cls-2" d="M188.31,236.75q-7.85-.2-14.43-6.79t-6.79-14.43A18.45,18.45,0,0,1,173,201.6q5.11-5.11,10.71-6A17.61,17.61,0,0,1,195,197.88l-5.06,5.06a10.47,10.47,0,0,0-6.71-1,12,12,0,0,0-6.35,3.56,11.56,11.56,0,0,0-3.67,9.29q.36,5.26,5.5,10.4t10.4,5.5a11.56,11.56,0,0,0,9.29-3.67q6-6,2.53-13.06l5.06-5.06a18.16,18.16,0,0,1,2.09,11.23,18.87,18.87,0,0,1-5.81,10.76A18.45,18.45,0,0,1,188.31,236.75Z"/><path class="cls-2" d="M218.33,206.74q-7.92-.13-14.48-6.68t-6.53-14.69a21.09,21.09,0,0,1,20.44-20.44q8.13,0,14.66,6.5t6.32,14.84a20.54,20.54,0,0,1-6.35,14.45A18.9,18.9,0,0,1,218.33,206.74Zm10.19-9.89a13.45,13.45,0,0,0,4-9.75q.05-5.78-5-10.84t-10.68-5.11a13,13,0,0,0-9.63,3.95,12.48,12.48,0,0,0-3.85,9.52q.15,5.52,5.24,10.61t10.51,5.34A12,12,0,0,0,228.52,196.85Z"/><path class="cls-2" d="M227.8,147.71l4.59,4.59q-2.17-7.95,4.18-14.3a15.13,15.13,0,0,1,11-4.72q6.27,0,12.05,5.76l16.77,16.77-4.64,4.64-16-16q-4.28-4.28-8.57-4.44a10.48,10.48,0,0,0-7.92,3.48,10.6,10.6,0,0,0-3.51,7.95q.13,4.31,4.41,8.6l16,16-4.7,4.7L223.1,152.41Z"/><path class="cls-2" d="M288.29,136.26l3.87-3.87L296,136.2,291.23,141q-7.38,7.38-14.66.1l-17.24-17.24-3.66,3.66-3.82-3.82,3.66-3.66-7-7,4.75-4.75,7,7,7.33-7.33,3.82,3.82-7.33,7.33,17.24,17.24a5.29,5.29,0,0,0,3.46,1.91Q286.33,138.22,288.29,136.26Z"/><path class="cls-2" d="M298.43,126.37q-8-.28-14.5-6.76t-6.63-14.32A18.18,18.18,0,0,1,283,91.61,16.45,16.45,0,0,1,291,87a15.79,15.79,0,0,1,8.54.34l-5.68-5.68,4.75-4.75L327,105.23,322.2,110l-5.78-5.78a15.91,15.91,0,0,1,.41,8.62,16.26,16.26,0,0,1-4.59,8.05A17.89,17.89,0,0,1,298.43,126.37Zm14.5-20q-.08-5.7-4.88-10.5T297.56,91a12.86,12.86,0,0,0-9.65,3.87,13.1,13.1,0,0,0-4,9.55q0,5.6,4.78,10.4a15.36,15.36,0,0,0,10.63,5,13,13,0,0,0,13.6-13.39Z"/><path class="cls-2" d="M304.5,60.07a4.37,4.37,0,0,1-1.34,3.2A4.25,4.25,0,0,1,300,64.59a4.43,4.43,0,0,1-3.17-1.37,4.37,4.37,0,0,1-1.34-3.2A4.49,4.49,0,0,1,300,55.53a4.59,4.59,0,0,1,4.54,4.54Zm29.16,38.45L305.32,70.19l4.7-4.7,28.34,28.34Z"/><path class="cls-2" d="M321.43,54.09,326,58.68q-2.17-7.95,4.18-14.3a15.13,15.13,0,0,1,11-4.72q6.27,0,12.05,5.76L370,62.19l-4.64,4.64-16-16q-4.28-4.28-8.57-4.44a10.48,10.48,0,0,0-7.92,3.48,10.6,10.6,0,0,0-3.51,7.95q.13,4.31,4.41,8.6l16,16-4.7,4.7L316.73,58.78Z"/></svg>
