<svg id="Layer_1" data-name="Layer 1" xmlns="http://www.w3.org/2000/svg" viewBox="0 0 299.43 476.64">
  <defs>
    <style>
      .cls-1 {
        fill: #009f99;
      }
    </style>
  </defs>
  <title>thumb1</title>
  <g>
    <path class="cls-1" d="M30.47,389.46H92.41a114.52,114.52,0,0,0,0-229H30.47a30,30,0,0,0,0,60.08H92.41a54.44,54.44,0,1,1,0,108.88H30.47a30,30,0,0,0,0,60.07Z" transform="translate(-0.43 -0.36)"/>
    <path class="cls-1" d="M30.47,305H94.3a30,30,0,0,0,0-60.07H30.47a30,30,0,1,0,0,60.07Z" transform="translate(-0.43 -0.36)"/>
    <path class="cls-1" d="M32.23,477H97.8c111.42,0,202.06-90.64,202.06-202.05S209.22,72.89,97.8,72.89c-9.59,0-20.64,0-33.78.08h-.65V31.5a31.15,31.15,0,0,0-62.29,0v72.8a31.24,31.24,0,0,0,30.82,31.14h.54c24.88-.17,46.87-.25,65.36-.25,77.07,0,138.47,62.7,138.47,139.76S174.87,414.7,97.8,414.7H32.23a31.15,31.15,0,0,0,0,62.3Z" transform="translate(-0.43 -0.36)"/>
  </g>
</svg>
